<svg id="Layer_1" data-name="Layer 1" xmlns="http://www.w3.org/2000/svg" viewBox="0 0 3112.44 2210.86"><defs><style>.cls-1{fill:#8ab9b4;}.cls-2{fill:#f1c251;}</style></defs><path class="cls-1" d="M1386.74,265.45a14.9,14.9,0,0,1,29.79,0,14.9,14.9,0,1,1-29.79,0Zm3.69,34.54h22.67V420.74h-22.67Z" transform="translate(-27.01 -26.93)"/><path class="cls-1" d="M1477.17,420.74V227.22h22.68V420.74Z" transform="translate(-27.01 -26.93)"/><path class="cls-1" d="M1562.07,420.74V227.22h22.67V420.74Z" transform="translate(-27.01 -26.93)"/><path class="cls-1" d="M1644.07,369.07V300h22.67v69.08c0,17.66,14.77,32.16,33.22,32.16,18.19,0,33.22-14.5,33.22-32.16V300h22.68v69.08a53.88,53.88,0,0,1-16.61,38.75A55.61,55.61,0,0,1,1700,423.38c-15,0-29-5.27-39.55-15.56A53.62,53.62,0,0,1,1644.07,369.07Z" transform="translate(-27.01 -26.93)"/><path class="cls-1" d="M1898,385.15a32.32,32.32,0,0,1-5.8,19c-3.69,5.54-9,9.76-16.08,13.19a52.88,52.88,0,0,1-21.62,4.48,66.13,66.13,0,0,1-12.4-1.32,79.67,79.67,0,0,1-36.12-17.4l14.24-15.56c14,11.87,25.84,14.24,33.22,14.24a34.81,34.81,0,0,0,14-2.9c3.42-1.58,9.49-5.54,9.49-13.71s-7.12-13.18-23.47-16.08c-.79-.27-20.83-4-28.21-8.18-11.07-6.32-16.87-16.08-16.87-28.21a33.2,33.2,0,0,1,5.8-18.45c3.42-4.75,8.17-8.44,15-11.6a49,49,0,0,1,20.82-4.49c2.9,0,6.07.27,9,.53a69.58,69.58,0,0,1,32.43,14.5l-13.18,15.29c-11.87-9.22-22.15-10.54-27.16-10.54a29.1,29.1,0,0,0-12.92,2.63c-5.27,2.64-8.7,7.39-8.7,12.13,0,7.91,6.33,12.13,22.41,15.56.26,0,21.88,4.74,28,8.17,7.12,3.69,9.75,6.59,12.65,10.28A31.78,31.78,0,0,1,1898,385.15Z" transform="translate(-27.01 -26.93)"/><path class="cls-1" d="M1955.71,380.67V321.61h-17.93V300h17.93V253.32h22.68V300h37.17v21.62h-37.17v58.53c0,9.76,8.43,19,17.93,19h20.3l5.8,21.62h-26.63A39.89,39.89,0,0,1,1955.71,380.67Z" transform="translate(-27.01 -26.93)"/><path class="cls-1" d="M2093.08,312.38c7.65-8.44,30.06-15,44-15L2131.57,320c-21.09,0-38.49,16.08-38.49,36.38v64.33h-22.67V300h22.67Z" transform="translate(-27.01 -26.93)"/><path class="cls-1" d="M2275.53,300h22.68V420.74h-22.68v-14c-11.33,9.49-25.57,16.61-40.6,16.61a63,63,0,1,1,0-126c15,0,29.27,7.12,40.6,16.61Zm0,60.38a40.6,40.6,0,1,0-40.6,40.86A40.85,40.85,0,0,0,2275.53,360.37Z" transform="translate(-27.01 -26.93)"/><path class="cls-1" d="M2365.44,380.67V321.61h-17.93V300h17.93V253.32h22.67V300h37.18v21.62h-37.18v58.53c0,9.76,8.44,19,17.93,19h20.3l5.81,21.62h-26.63A39.89,39.89,0,0,1,2365.44,380.67Z" transform="translate(-27.01 -26.93)"/><path class="cls-1" d="M2594,360.37a63.44,63.44,0,0,1-63.27,63.27,63.15,63.15,0,1,1,0-126.29,63,63,0,0,1,63.27,63Zm-22.67,0a40.61,40.61,0,1,0-40.6,40.6A40.4,40.4,0,0,0,2571.36,360.37Z" transform="translate(-27.01 -26.93)"/><path class="cls-1" d="M2667.07,312.38c7.65-8.44,30.06-15,44-15L2705.57,320c-21.1,0-38.5,16.08-38.5,36.38v64.33H2644.4V300h22.67Z" transform="translate(-27.01 -26.93)"/><path class="cls-1" d="M622.31,1578.72H645v193.52H622.31v-14c-11.34,9.49-25.57,16.61-40.6,16.61a63,63,0,1,1,0-126c15,0,29.26,7.12,40.6,16.61Zm0,133.15a40.61,40.61,0,1,0-40.6,40.86A40.85,40.85,0,0,0,622.31,1711.87Z" transform="translate(-27.01 -26.93)"/><path class="cls-1" d="M811.62,1717.4H718.55v.53c2.63,20,17.66,35.07,35.06,35.33,10.81-.53,21.89-5,29.53-12.66l19,11.34A71.06,71.06,0,0,1,786,1765.39c-9.23,5.53-20.56,8.43-31.9,9a54.08,54.08,0,0,1-40.87-18.45,62.25,62.25,0,0,1-16.34-38,38.08,38.08,0,0,1-.27-5.54,65.67,65.67,0,0,1,1.58-14.23,63.55,63.55,0,0,1,15-29.27,55.17,55.17,0,0,1,40.87-18.19,55.73,55.73,0,0,1,41.13,18.19,61.1,61.1,0,0,1,15,29.27C812.14,1709,811.88,1715,811.62,1717.4Zm-23.73-19-.27-.53c-5.27-15.55-18.72-26.1-33.48-26.1-14.5,0-27.95,10.55-33.48,26.1l-.27.53Z" transform="translate(-27.01 -26.93)"/><path class="cls-1" d="M942.39,1736.65a32.25,32.25,0,0,1-5.8,19c-3.69,5.54-9,9.76-16.08,13.19a52.85,52.85,0,0,1-21.62,4.48A66,66,0,0,1,886.5,1772a79.62,79.62,0,0,1-36.12-17.4L864.62,1739c14,11.87,25.83,14.24,33.22,14.24a34.77,34.77,0,0,0,14-2.9c3.43-1.58,9.49-5.54,9.49-13.71s-7.12-13.18-23.46-16.08c-.79-.27-20.83-4-28.21-8.18-11.08-6.32-16.88-16.08-16.88-28.21a33.2,33.2,0,0,1,5.8-18.45c3.43-4.75,8.17-8.44,15-11.6a49.17,49.17,0,0,1,20.83-4.49c2.9,0,6.06.27,9,.53a69.58,69.58,0,0,1,32.43,14.5L922.62,1680c-11.86-9.23-22.15-10.54-27.16-10.54a29.16,29.16,0,0,0-12.92,2.63c-5.27,2.64-8.7,7.39-8.7,12.13,0,7.91,6.33,12.13,22.41,15.56.27,0,21.89,4.74,28,8.17,7.12,3.69,9.76,6.59,12.66,10.28A31.78,31.78,0,0,1,942.39,1736.65Z" transform="translate(-27.01 -26.93)"/><path class="cls-1" d="M994.86,1617a14.9,14.9,0,0,1,29.8,0,14.9,14.9,0,1,1-29.8,0Zm3.7,34.54h22.67v120.75H998.56Z" transform="translate(-27.01 -26.93)"/><path class="cls-1" d="M1198.94,1651.49V1778a63.45,63.45,0,0,1-63.28,63.28,66.24,66.24,0,0,1-34-9.23,71.31,71.31,0,0,1-11.34-8.7l17.14-15a52.32,52.32,0,0,0,28.21,10.81c22.41,0,40.6-18.72,40.6-41.13v-19.77c-11.33,9.49-25.57,16.61-40.6,16.61a63,63,0,1,1,0-126c15,0,29.27,7.12,40.6,16.61v-14Zm-22.68,60.38a40.6,40.6,0,1,0-40.6,40.86A40.85,40.85,0,0,0,1176.26,1711.87Z" transform="translate(-27.01 -26.93)"/><path class="cls-1" d="M1373,1707.38v64.86h-22.67v-64.86c0-19.77-15.82-36.12-35.6-36.12-19.51,0-35.59,16.35-35.59,36.12v64.86h-22.67V1651.49h22.67v11.6c10.28-7.91,22.68-14,35.59-14a58,58,0,0,1,41.4,16.87A58.65,58.65,0,0,1,1373,1707.38Z" transform="translate(-27.01 -26.93)"/><path class="cls-1" d="M1535.63,1717.4h-93.07v.53c2.63,20,17.66,35.07,35.06,35.33,10.81-.53,21.89-5,29.53-12.66l19,11.34a71.33,71.33,0,0,1-16.09,13.45c-9.22,5.53-20.56,8.43-31.9,9a54.08,54.08,0,0,1-40.87-18.45,62.25,62.25,0,0,1-16.34-38,38.08,38.08,0,0,1-.27-5.54,65.07,65.07,0,0,1,1.59-14.23,63.44,63.44,0,0,1,15-29.27,55.3,55.3,0,0,1,82,0,61.1,61.1,0,0,1,15,29.27C1536.16,1709,1535.89,1715,1535.63,1717.4Zm-23.73-19-.26-.53c-5.28-15.55-18.72-26.1-33.49-26.1-14.5,0-28,10.55-33.48,26.1l-.27.53Z" transform="translate(-27.01 -26.93)"/><path class="cls-1" d="M1608.14,1663.88c7.64-8.44,30.06-15,44-15l-5.54,22.68c-21.09,0-38.49,16.08-38.49,36.38v64.33h-22.68V1651.49h22.68Z" transform="translate(-27.01 -26.93)"/><path class="cls-2" d="M215.16,653.11c103.9,0,188.14,84.23,188.14,188.15v393.22c0,103.9-84.24,188.16-188.14,188.16H27V653.11ZM55.5,681.6v712.54H215.16a159.71,159.71,0,0,0,159.65-158.63V840.08A159.64,159.64,0,0,0,215.16,681.6Zm64.92,64.93h94.74a94.84,94.84,0,0,1,94.72,94.73v393.22a94.85,94.85,0,0,1-94.72,94.73l-66.25,0H120.42Zm28.49,554.18,66.25,0a66.23,66.23,0,0,0,66.24-66.21V841.26A66.25,66.25,0,0,0,215.16,775H148.91Z" transform="translate(-27.01 -26.93)"/><path class="cls-2" d="M827.64,653.11V775H573.26V976.74H716.91v121.92H573.26v202H827.64v121.93H451.32V653.11ZM479.81,681.6v712.54H799.12v-64.93H544.74v-259H688.4v-64.92H544.74V746.52H799.12V681.6Z" transform="translate(-27.01 -26.93)"/><path class="cls-2" d="M1254,653.11c103.87,0,188.14,84.23,188.14,188.15v69.42a187.51,187.51,0,0,1-49.53,127.19,187.49,187.49,0,0,1,49.53,127.19v69.42c0,103.9-84.27,188.16-188.14,188.16H1065.84V653.11ZM1094.33,681.6v712.52H1254a159.65,159.65,0,0,0,159.62-159.64v-69.42a159.33,159.33,0,0,0-42-107.92l-17.7-19.27,17.7-19.27a159.35,159.35,0,0,0,42-107.92V841.26A159.63,159.63,0,0,0,1254,681.6Zm64.9,64.92H1254a94.82,94.82,0,0,1,94.7,94.73v69.42a94.82,94.82,0,0,1-94.7,94.73h-94.79Zm0,323.81H1254a94.84,94.84,0,0,1,94.7,94.73v69.42a94.83,94.83,0,0,1-94.7,94.73l-66.28,0h-28.51Zm28.51-93.41,66.28,0a66.21,66.21,0,0,0,66.18-66.22V841.26A66.23,66.23,0,0,0,1254,775h-66.28Zm0,323.79H1254a66.21,66.21,0,0,0,66.18-66.23v-69.42a66.21,66.21,0,0,0-66.18-66.22h-66.28Z" transform="translate(-27.01 -26.93)"/><path class="cls-2" d="M1866.5,653.11v581.37c0,103.9-84.27,188.16-188.17,188.16s-188.17-84.26-188.17-188.16V653.11h121.9v581.37a66.26,66.26,0,0,0,132.51,0V653.11Zm-93.41,28.49,0,552.88a94.75,94.75,0,0,1-189.49,0V681.6h-64.92v553.92a159.67,159.67,0,0,0,319.33-1V681.6Z" transform="translate(-27.01 -26.93)"/><path class="cls-2" d="M2102.64,653.11c103.91,0,188.18,84.23,188.18,188.15v69.42a187.56,187.56,0,0,1-49.53,127.19,187.54,187.54,0,0,1,49.53,127.19v257.58H2168.88l0-257.58a66.21,66.21,0,0,0-66.22-66.22h-66.23v323.8H1914.5V653.11ZM1943,681.6v712.54h64.9V1070.33h94.76a94.86,94.86,0,0,1,94.73,94.73v229.08h64.93V1165.06a159,159,0,0,0-42-107.92l-17.69-19.27,17.69-19.27a159.06,159.06,0,0,0,42-107.92V841.26A159.63,159.63,0,0,0,2102.64,681.6Zm64.9,64.92h94.76a94.84,94.84,0,0,1,94.73,94.73v69.42a94.84,94.84,0,0,1-94.73,94.73h-94.76Zm28.53,230.4,66.23,0a66.22,66.22,0,0,0,66.22-66.22V841.26A66.23,66.23,0,0,0,2102.64,775h-66.23Z" transform="translate(-27.01 -26.93)"/><path class="cls-2" d="M2527,653.11c103.91,0,188.15,84.23,188.15,188.15H2593.2a66.23,66.23,0,1,0-132.46,0v393.22a66.22,66.22,0,0,0,66.24,66.23h66.25V1098.84H2527V976.92h188.15v445.72H2527c-103.93,0-188.17-84.25-188.17-188.16V841.26C2338.81,737.34,2423.05,653.11,2527,653.11Zm-112.92,75.24a158.72,158.72,0,0,0-46.76,112.91v393.22a159.62,159.62,0,0,0,158.5,159.64h160.82V1005.41H2555.48v64.92h66.24v258.88H2527a94.85,94.85,0,0,1-94.72-94.73V841.26a94.74,94.74,0,0,1,185.08-28.5h66.78a159.72,159.72,0,0,0-270.06-84.41Z" transform="translate(-27.01 -26.93)"/><path class="cls-2" d="M3139.45,653.11v769.53H3017.54v-323.8H2885.06v323.8h-121.9V653.11h121.9V976.92h132.48V653.11ZM3046,681.6v323.81H2856.55V681.6h-64.9v712.54h64.9V1070.33H3046v323.81H3111V681.6Z" transform="translate(-27.01 -26.93)"/><path class="cls-1" d="M903.72,1229.25c-102,53.82-219.57,57.42-326.74,96.89-50.16,17.92-98.57,43-145.25,70-27.66,14.34-50.13,25.12-69.14,52-3.47,5.39-38,44.82-36.32,39.47a316.66,316.66,0,0,1-36.3,32.25c8.65-3.57,34.6-21.52,36.3-17.92,3.48,23.32-50.14,41.26-67.42,44.84-38.05,5.38-84.73-5.36-96.81-48.44-17.29-59.2,29.39-125.55,65.69-163.23,17.29-17.94,36.29-32.3,58.79-41.25,25.94-12.56,58.76-12.56,69.17-41.26,0,1.79,1.7-41.26,10.36-46.64,1.72,0-6.93,37.64-6.93,37.64,5.17-14.34,6.93-28.68,12.1-44.82-1.72,1.78-3.45,1.78-5.17,0-8.66-23.32,19-87.89,24.18-111.23,8.69-34.08,19-66.38,25.95-100.46,15.55-61,24.21-118.38,31.12-181.16,6.9-68.16,25.91-134.53,43.22-199.13C494,597.83,523.37,483,532,483c1.76,0-5.18,25.12-3.45,26.92C539,474,547.56,438.18,558,404.08c-1.75,1.8-13.86,28.7-13.86,25.14-3.45-19.75,15.56-52,22.46-71.78l24.22-75.34c17.26-50.21,36.33-100.46,65.69-147.1,38-57.38,91.64-104,160.81-107.61,48.37-3.6,98.51,14.36,138.29,37.67,72.62,41.24,100.26,96.86,105.47,174,5.2,95.07-57,229.62-129.66,287-27.67,21.53-65.73,39.49-100.3,35.87-22.46-1.77-50.13-14.34-36.29-41.25a13,13,0,0,0,5.18-5.36h-1.71c0-1.81,60.5-132.75,67.39-131,1.76,0-20.73,57.42-20.73,61a1232.14,1232.14,0,0,0,65.72-174c8.63-30.48,34.57-104,13.8-136.33-22.46-34.08-72.59,5.38-93.36,25.13-48.37,50.21-77.77,122-103.71,186.57,29.39-70,74.32-184.78,150.39-213.48,70.9-26.92,41.51,75.35,34.58,100.46,5.2-19.73,19-93.3-8.63-102.25-32.85-9-70.87,39.47-86.43,61-70.9,95.06-110.67,220.62-147,333.64-74.33,233.22-117.55,475.4-204,703.19,114.1-35.86,233.4-66.38,352.67-73.54,39.79-1.79,81.29,0,119.34,3.59C998.8,1166.49,929.66,1216.69,903.72,1229.25ZM290,1519.85a1.76,1.76,0,0,0-1.73,1.82Zm229.95-954.3c13.84-46.66,29.39-89.69,46.65-132.77,53.64-122,102-319.3,240.3-355.16-55.28,12.55-96.81,44.82-133.07,96.86-45,62.77-76.1,131-100.29,204.5C554.49,441.78,535.48,502.75,519.92,565.55ZM665.14,517.1c-13.84,43.06-27.67,84.29-39.78,127.37l39.78-123.79Z" transform="translate(-27.01 -26.93)"/><path class="cls-1" d="M1065.84,1229.39c-30.11-.17-4.08-67.19,2.17-91.6,5.2-14.34,67.44-181.19,70.89-179.4-3.45,0-6.93,1.79-10.35,7.17,19-43,39.75-86.1,62.21-127.37-5.18,10.77-10.35,28.73-10.35,28.73,8.62,1.78,50.1-86.11,46.68-86.11-3.49,1.77-6.93,5.39-10.39,10.73,13.81-25.08,31.12-37.64,0-62.76s-86.46-30.49-117.58-1.8c-38,32.3-62.24,89.68-81.25,134.55-12.08,25.12-32.85,39.46-45,68.16-24.18,55.6-38,111.21-51.85,168.61-13.81,55.62-22.47,113-13.81,170.43,5.16,25.12,13.81,53.81,32.82,71.76,5.2,3.57,55.34,23.31,51.88,10.75-3.44,0-6.93,0-8.65-1.8,19,0,38-9,55.34-19.72,1.72,1.78-13.87,9-13.87,10.77,5.27,7.11,21.21-.88,41.07-15.74Zm26.38-175.93c-24.21,70-48.38,156.07-44.92,172.22C1036.88,1173.64,1073.21,1101.88,1092.22,1053.46Z" transform="translate(-27.01 -26.93)"/><path class="cls-1" d="M1633.37,1023c-50.13,55.6-98.57,116.59-157.35,165-27.65,21.52-39.78,34.08-38-9,1.73-37.67,15.56-77.16,25.92-111.24,5.21-17.92,39.78-86.09,29.43-98.63-1.76-1.8-5.22,3.57-8.66,7.16,24.21-50.24,83-136.33,5.2-159.67-88.18-25.12-133.14,73.57-171.16,132.77-36.33,53.82-70.9,105.84-112.4,154.27-5.62,6.83-11.86,14.81-18.58,23.34v79.65c42.53-56.36,85-111.09,129.23-165.79-22.47,62.8-60.49,148.89-24.2,217.07,20.75,35.88,60.5,55.61,98.54,52,81.26-5.38,153.88-96.85,204-152.46,32.82-37.68,65.67-77.15,89.88-120.2,10.36-17.94,38-57.42,36.3-78.93C1716.35,924.31,1636.83,1019.38,1633.37,1023ZM1502,881.27c-13.87,39.46-31.15,75.33-43.23,113-3.48,10.73-5.21,25.09-10.39,34.07,0,1.8-1.72,3.58-3.47,5.37,1.75-1.79,1.75-3.57,1.75-5.37C1432.79,983.51,1484.68,926.09,1502,881.27Zm-185,168.61c0-7.17,1.75-12.56,6.93-16.15C1320.42,1039.12,1318.72,1044.5,1317,1049.88Z" transform="translate(-27.01 -26.93)"/><path class="cls-1" d="M1889.27,692.91c3.48-1.8-10.36-7.18-12.11-5.39a61.09,61.09,0,0,0-10.66,8.11v7.11c3.45-4,6.91-7.89,10.66-11.63C1880.64,687.52,1887.54,694.68,1889.27,692.91Z" transform="translate(-27.01 -26.93)"/><path class="cls-1" d="M1866.5,653.11v36.56c52.33-35.13,31.23,115.13,24.49,137.78,0-1.79,7-41.25,5.18-41.25-3.42,0-27.64,91.45-27.64,91.45l8.63-7.16c-3.18,5.31-7.57,10.15-10.66,14.93V905a35.88,35.88,0,0,0,7.2,6.72c27.67,19.73,81.28-14.36,93.37-39.48,12.11-26.9,15.55-62.77,17.31-89.69,3.46-46.64-8.65-73.54-24.22-109.41-17.29-37.68-32.87-61-79.52-68.16-38-5.38-72.62,10.74-102,34.08-5.89,4.38-11.07,9.31-16.55,14Z" transform="translate(-27.01 -26.93)"/><path class="cls-1" d="M2197,942.27c-34.57-35.92-124.46,113-138.32,130.91-27.64,37.7-57,73.57-84.7,109.43-15.56,19.74-31.13,39.48-48.44,57.42-3.45,3.56-36.29,46.64-32.81,46.64,5.2-1.78,10.32-5.38,15.53-9-29.37,32.3-69.12,61-105.41,89.72-24.22,17.93-70.93,57.39-100.3,35.86-12.11-7.16-15.59-25.12-19-37.67-12.11-55.61-3.45-122,5.21-179.38,11.94-75.52,31.45-150.34,55.83-223.56v-294c-27.12,26.6-49.8,57.14-69.66,90.61-6.93,12.58-69.15,143.51-67.43,145.29l6.91-9c-8.63,19.73-13.8,39.46-20.71,57.38-1.78,0,3.42-16.12,1.69-16.12-10.38-1.8-41.5,96.86-43.19,105.84-12.14,37.66-20.77,75.35-22.52,114.81-1.73,43-8.63,86.07-10.36,130.93,0,23.35,0,48.45,3.46,71.77,0,7.18,13.83,44.83,13.83,34.08l8.65,30.49c-1.75-1.78-8.65-19.74-8.65-19.74-8.66,10.77,38,80.74,48.4,91.5,13.84,16.14,34.6,23.3,55.35,26.92,69.14,9,134.83-32.3,185-75.34,86.43-75.35,171.16-168.64,235.12-265.52,25.92-41.24,55.32-78.91,84.71-118.39C2160.7,1040.9,2223,972.74,2197,942.27Zm-466.78,43v7.17c-1.76,1.83-1.76,1.83-1.76,3.61C1728.48,992.46,1728.48,988.89,1730.24,985.29Zm-6.93,28.69-24.22,86.13C1706,1071.42,1714.68,1042.71,1723.31,1014Zm-148.7,129.2c-6.9,12.53-6.9,35.86-6.9,55.59-1.73-21.51-1.73-44.85,5.17-66.36C1572.88,1132.41,1578.09,1139.57,1574.61,1143.18Zm3.48-34.11c-1.72,5.38-5.21,12.55-5.21,16.15,0-9,0-18,8.69-21.52Zm60.52-175.8c-3.45,18-8.66,37.68-15.59,53.81-5.15,12.56-20.72,23.34-22.43,32.3,3.42-30.49,25.91-61,39.75-95.07C1640.34,927.91,1638.61,931.48,1638.61,933.27Z" transform="translate(-27.01 -26.93)"/><path class="cls-1" d="M2058.73,1406.86c15.56,9,36.32,12.54,55.34,9,6.9,0,39.77-14.34,27.66-14.34l10.36-3.6-3.45,3.6c1.73,1.78,64-26.92,74.34-30.5,46.11-19.81,86.32-56.3,120.74-92.75-9.29-31.42-4.91-71.22-4.91-71.22l.06,0c-24.06,19.48-48.85,38.53-70.9,56.36-19.06,16.15-74.38,73.56-103.8,62.8-83-26.9,88.21-371.33,83-373.15s-60.52,139.93-72.6,172.23c27.65-87.9,64-174,102-256.52-1.73,7.17-6.93,21.53-3.48,21.53,5.18,1.77,31.09-57.39,25.94-59.21-1.75,0-3.45,1.82-5.2,1.82,5.2-7.18,13.8-10.78,17.28-21.56,5.18-23.32-20.73-48.42-39.75-55.6-41.5-17.92-89.91,7.18-108.91,48.43-5.21,7.17-10.39,19.74-13.84,23.34-5.18,10.74-13.86,14.36-20.77,25.12-19,34.08-29.36,73.52-43.22,109.42-5.18,16.13-65.67,195.53-57,197.31l3.42-3.59c-3.42,12.55-5.18,26.9-6.9,39.46-3.43-1.78,1.72-12.56-1.7-12.56-17.31-1.78-24.22,113-22.49,125.59C2003.45,1344.06,2025.88,1388.92,2058.73,1406.86Z" transform="translate(-27.01 -26.93)"/><path class="cls-1" d="M2931.85,981.71c-29.42,25.1-60.51,46.65-89.94,71.75-84.7,66.38-164.22,136.33-243.75,206.31,32.84-96.9,81.25-193.75,133.14-281.65,10.35-17.94,19-34.09,15.53-55.59-8.63-48.45-70.9-68.19-112.4-61-36.27,7.17-39.73,25.12-46.66,50.22-13.83,44.85-64,84.32-93.36,118.41-4.43,5.23-18.07,22.19-33.67,41.6v84.83l6-6.25c26-26.89,48.44-68.16,76.05-89.7-15.53,50.24-31.09,100.47-44.9,150.69-19,59.18-29.39,132.73-57.09,186.55-22.46,43.06-79.53,82.51-112.37,116.63-46.66,44.82-93.34,89.68-136.56,136.32-60.52,66.39-114.13,141.69-167.71,215.25-55.31,77.14-131.41,186.56-62.21,279.81,46.62,66.4,133.1,107.66,210.88,86.18,70.9-18,98.56-79,133.14-136.37,110.64-190.17,171.15-410.81,235.12-620.67,10.36-30.51,17.29-84.32,34.57-109.44s51.86-46.62,72.63-66.35c51.86-48.46,105.47-95.07,159.05-139.94l150.43-123.76c22.46-17.95,53.58-34.08,50.1-68.17C3002.66,910,2949.09,965.56,2931.85,981.71Zm-667.36,916.64v1.86l-6.9,14.3v1.76a1.76,1.76,0,0,0-1.79,1.8c0,1.81-1.69,5.43-1.69,5.43a1131.22,1131.22,0,0,1-60.52,122c-19,32.32-45,84.32-81.25,96.92-69.17,25.09-74.35-93.3-64-132.81,25.92-96.81,95.09-181.19,153.86-258.27,60.54-80.74,124.45-154.28,197.07-224.26C2357.83,1650.83,2316.32,1776.39,2264.49,1898.35Zm110.62-78.9c-1.73,3.59-3.45,7.18-6.91,10.74Zm-17.28,84.32-15.56,28.66c6.89-19.67,13.83-41.26,22.49-59.2,6.9-21.53,19-44.85,31.11-66.32C2385.49,1839.18,2376.87,1871.45,2357.83,1903.77Zm65.69-226-31.12,78.93c3.47-16.17,6.9-34.08,13.83-44.88,6.93-16.13,20.76-44.82,17.29-64.55C2425.24,1656.21,2427,1668.73,2423.52,1677.74Z" transform="translate(-27.01 -26.93)"/></svg>