<svg id="Layer_1" data-name="Layer 1" xmlns="http://www.w3.org/2000/svg" viewBox="0 0 3112.44 2210.86"><defs><style>.cls-1{fill:#f1be2a;}.cls-2{fill:#80b4af;}</style></defs><path class="cls-1" d="M1476.57,920.73c103.91,0,188.15,84.22,188.15,188.14v393.22c0,103.9-84.24,188.16-188.15,188.16H1288.43V920.73Zm-159.65,28.49v712.53h159.65a159.71,159.71,0,0,0,159.66-158.63V1107.69a159.64,159.64,0,0,0-159.66-158.47Zm64.92,64.92h94.73a94.84,94.84,0,0,1,94.73,94.73v393.22a94.85,94.85,0,0,1-94.73,94.73l-66.24,0h-28.49Zm28.49,554.18h66.24a66.24,66.24,0,0,0,66.25-66.22V1108.87a66.26,66.26,0,0,0-66.25-66.24h-66.24Z" transform="translate(-1288.43 -294.54)"/><path class="cls-1" d="M2089.06,920.73v121.9H1834.68v201.72h143.65v121.92H1834.68v202h254.38v121.93H1712.74V920.73Zm-347.83,28.49v712.53h319.31v-64.93H1806.16v-259h143.66v-64.91H1806.16V1014.13h254.38V949.22Z" transform="translate(-1288.43 -294.54)"/><path class="cls-1" d="M2515.43,920.73c103.88,0,188.14,84.22,188.14,188.14v69.42a187.48,187.48,0,0,1-49.52,127.19,187.49,187.49,0,0,1,49.52,127.2v69.41c0,103.9-84.26,188.16-188.14,188.16H2327.26V920.73Zm-159.68,28.49v712.52h159.68a159.67,159.67,0,0,0,159.63-159.65v-69.41a159.29,159.29,0,0,0-42-107.92l-17.71-19.28,17.71-19.27a159.35,159.35,0,0,0,42-107.92v-69.42a159.61,159.61,0,0,0-159.63-159.65Zm64.89,64.91h94.79a94.83,94.83,0,0,1,94.71,94.73v69.42a94.83,94.83,0,0,1-94.71,94.73h-66.27l-28.52,0Zm0,323.82h94.79a94.84,94.84,0,0,1,94.71,94.73v69.41a94.84,94.84,0,0,1-94.71,94.73l-66.27,0h-28.52Zm28.52-93.42h66.27a66.22,66.22,0,0,0,66.18-66.23v-69.42a66.22,66.22,0,0,0-66.18-66.24h-66.27Zm0,323.79h66.27a66.2,66.2,0,0,0,66.18-66.23v-69.41a66.2,66.2,0,0,0-66.18-66.23h-66.27Z" transform="translate(-1288.43 -294.54)"/><path class="cls-1" d="M3127.92,920.73v581.36c0,103.9-84.27,188.16-188.17,188.16s-188.18-84.26-188.18-188.16V920.73h121.91v581.36a66.26,66.26,0,0,0,132.51,0V920.73Zm-93.42,28.49,0,552.87a94.75,94.75,0,0,1-189.49,0V949.22h-64.92v553.91a159.67,159.67,0,0,0,319.33-1V949.22Z" transform="translate(-1288.43 -294.54)"/><path class="cls-1" d="M3364.06,920.73c103.91,0,188.18,84.22,188.18,188.14v69.42a187.54,187.54,0,0,1-49.53,127.19,187.55,187.55,0,0,1,49.53,127.2v257.57H3430.3l0-257.57a66.21,66.21,0,0,0-66.22-66.23h-66.24v323.8h-121.9V920.73ZM3204.4,949.22v712.53h64.9V1338h94.76a94.85,94.85,0,0,1,94.73,94.73v229.07h64.92V1432.68a159,159,0,0,0-42-107.92L3464,1305.48l17.69-19.27a159,159,0,0,0,42-107.92v-69.42a159.6,159.6,0,0,0-159.65-159.65Zm64.9,64.91h94.76a94.84,94.84,0,0,1,94.73,94.73v69.42a94.84,94.84,0,0,1-94.73,94.73h-66.24l-28.52,0Zm28.52,230.4h66.24a66.23,66.23,0,0,0,66.22-66.23v-69.42a66.23,66.23,0,0,0-66.22-66.24h-66.24Z" transform="translate(-1288.43 -294.54)"/><path class="cls-1" d="M3788.4,920.73c103.91,0,188.15,84.22,188.15,188.14H3854.61a66.23,66.23,0,1,0-132.45,0v393.22a66.22,66.22,0,0,0,66.24,66.23h66.24V1366.45H3788.4V1244.53h188.15v445.72H3788.4c-103.93,0-188.17-84.25-188.17-188.16V1108.87C3600.23,1005,3684.47,920.73,3788.4,920.73ZM3675.48,996a158.68,158.68,0,0,0-46.76,112.91v393.22a159.64,159.64,0,0,0,158.5,159.65H3948V1273H3816.89V1338h66.25v258.87H3788.4a94.85,94.85,0,0,1-94.72-94.73V1108.87a94.73,94.73,0,0,1,185.07-28.5h66.79A159.73,159.73,0,0,0,3675.48,996Z" transform="translate(-1288.43 -294.54)"/><path class="cls-1" d="M4400.86,920.73v769.52H4279v-323.8H4146.48v323.8H4024.57V920.73h121.91v323.8H4279V920.73Zm-93.41,28.49V1273H4118V949.22h-64.89v712.53H4118V1338h189.49v323.8h64.92V949.22Z" transform="translate(-1288.43 -294.54)"/><path class="cls-2" d="M2165.14,1496.86c-102,53.82-219.57,57.42-326.74,96.9-50.16,17.91-98.57,43-145.25,70-27.66,14.34-50.13,25.12-69.14,52-3.47,5.39-38,44.82-36.33,39.47a313.85,313.85,0,0,1-36.29,32.25c8.65-3.57,34.6-21.51,36.29-17.91,3.49,23.31-50.13,41.25-67.41,44.83-38.06,5.38-84.73-5.36-96.81-48.43-17.29-59.2,29.39-125.55,65.68-163.24,17.29-17.94,36.3-32.29,58.79-41.25,26-12.56,58.77-12.56,69.18-41.26,0,1.8,1.7-41.25,10.35-46.64,1.73,0-6.92,37.64-6.92,37.64,5.17-14.34,6.92-28.68,12.1-44.82q-2.58,2.68-5.18,0c-8.65-23.32,19-87.89,24.19-111.23,8.69-34.08,19-66.38,25.95-100.46,15.55-61,24.21-118.38,31.11-181.16,6.91-68.15,25.92-134.53,43.23-199.13,3.45-9,32.85-123.77,41.48-123.77,1.76,0-5.18,25.12-3.46,26.92,10.42-35.9,19-71.76,29.43-105.85-1.75,1.79-13.86,28.69-13.86,25.13-3.46-19.75,15.56-52,22.46-71.77l24.22-75.35c17.25-50.2,36.33-100.46,65.69-147.1,38-57.38,91.64-104,160.81-107.6,48.37-3.61,98.5,14.35,138.29,37.66,72.62,41.25,100.26,96.86,105.46,174,5.21,95.07-57,229.62-129.65,287-27.67,21.53-65.73,39.49-100.3,35.87-22.46-1.76-50.13-14.34-36.3-41.25a12.86,12.86,0,0,0,5.18-5.36h-1.7c0-1.81,60.49-132.75,67.39-131,1.76,0-20.73,57.42-20.73,61a1232.14,1232.14,0,0,0,65.72-174c8.63-30.48,34.57-104,13.8-136.33-22.46-34.08-72.59,5.38-93.36,25.14-48.37,50.2-77.77,122-103.71,186.57,29.39-70,74.32-184.79,150.39-213.49,70.9-26.91,41.51,75.35,34.58,100.46,5.2-19.73,19-93.3-8.63-102.25-32.85-9-70.87,39.47-86.43,61-70.9,95.06-110.67,220.62-147,333.64-74.33,233.22-117.56,475.41-204,703.19,114.09-35.86,233.4-66.38,352.67-73.54,39.78-1.79,81.28,0,119.34,3.59C2260.22,1434.1,2191.08,1484.3,2165.14,1496.86Zm-613.75,290.6c-1.73,0-1.73,1.83-1.73,1.83Zm229.95-954.3c13.84-46.65,29.39-89.69,46.65-132.77,53.64-122,102-319.3,240.3-355.16-55.28,12.55-96.81,44.82-133.08,96.86-45,62.77-76.1,131-100.28,204.5C1815.91,709.39,1796.89,770.36,1781.34,833.16Zm145.22-48.45c-13.84,43.07-27.67,84.3-39.78,127.37l39.78-123.79Z" transform="translate(-1288.43 -294.54)"/><path class="cls-2" d="M2327.26,1497c-30.11-.17-4.08-67.19,2.17-91.6,5.2-14.34,67.44-181.18,70.89-179.4-3.45,0-6.93,1.79-10.36,7.18,19-43,39.75-86.11,62.22-127.38-5.18,10.77-10.36,28.73-10.36,28.73,8.63,1.78,50.11-86.1,46.68-86.1-3.48,1.76-6.93,5.38-10.38,10.72,13.81-25.08,31.12-37.64,0-62.76s-86.46-30.49-117.58-1.79c-38,32.29-62.24,89.67-81.25,134.54-12.08,25.13-32.85,39.47-45,68.16-24.19,55.6-38,111.21-51.85,168.62-13.81,55.61-22.47,113-13.81,170.42,5.15,25.12,13.81,53.81,32.82,71.76,5.2,3.57,55.33,23.31,51.88,10.75-3.44,0-6.93,0-8.66-1.79,19,0,38-9,55.35-19.73,1.72,1.78-13.87,9-13.87,10.77,5.27,7.11,21.2-.88,41.07-15.74Zm26.38-175.93c-24.21,70-48.38,156.07-44.93,172.22C2298.3,1441.25,2334.63,1369.49,2353.64,1321.07Z" transform="translate(-1288.43 -294.54)"/><path class="cls-2" d="M2894.79,1290.59c-50.13,55.6-98.57,116.6-157.36,165-27.64,21.52-39.77,34.08-38-9,1.73-37.67,15.56-77.16,25.92-111.24,5.21-17.91,39.78-86.09,29.42-98.63-1.75-1.8-5.21,3.57-8.65,7.16,24.21-50.24,83-136.33,5.2-159.67-88.19-25.12-133.14,73.57-171.16,132.77-36.33,53.82-70.9,105.84-112.4,154.27-5.62,6.84-11.86,14.81-18.58,23.34v79.65c42.52-56.36,85-111.08,129.23-165.79-22.47,62.8-60.5,148.89-24.2,217.08,20.74,35.87,60.49,55.61,98.54,52,81.26-5.38,153.88-96.85,204-152.46,32.82-37.68,65.66-77.14,89.88-120.19,10.35-18,38-57.42,36.3-78.94C2977.77,1191.92,2898.25,1287,2894.79,1290.59Zm-131.38-141.71c-13.87,39.46-31.15,75.34-43.23,113-3.48,10.74-5.21,25.09-10.39,34.08,0,1.79-1.72,3.57-3.47,5.37,1.75-1.8,1.75-3.58,1.75-5.37C2694.21,1251.12,2746.1,1193.7,2763.41,1148.88Zm-185,168.62c0-7.18,1.75-12.56,6.93-16.15C2581.84,1306.73,2580.14,1312.11,2578.39,1317.5Z" transform="translate(-1288.43 -294.54)"/><path class="cls-2" d="M3150.68,960.52c3.49-1.8-10.35-7.18-12.11-5.39a61,61,0,0,0-10.65,8.11v7.11c3.45-4,6.9-7.89,10.65-11.63C3142.06,955.13,3149,962.3,3150.68,960.52Z" transform="translate(-1288.43 -294.54)"/><path class="cls-2" d="M3127.92,920.73v36.55c52.33-35.13,31.23,115.13,24.49,137.78,0-1.79,7-41.25,5.18-41.25-3.42,0-27.64,91.46-27.64,91.46l8.62-7.17c-3.17,5.32-7.56,10.15-10.65,14.93v19.62a35.88,35.88,0,0,0,7.2,6.71c27.67,19.74,81.28-14.36,93.37-39.48,12.11-26.9,15.55-62.77,17.31-89.69,3.45-46.64-8.66-73.54-24.22-109.41-17.29-37.68-32.87-61-79.52-68.16-38-5.38-72.63,10.74-102,34.08-5.89,4.38-11.07,9.31-16.55,14Z" transform="translate(-1288.43 -294.54)"/><path class="cls-2" d="M3458.43,1209.88c-34.57-35.92-124.45,113-138.31,130.91-27.64,37.7-57,73.57-84.7,109.43-15.56,19.74-31.13,39.48-48.44,57.42-3.45,3.56-36.3,46.64-32.81,46.64,5.2-1.78,10.32-5.38,15.53-9-29.37,32.3-69.12,61-105.41,89.72-24.22,17.93-70.93,57.39-100.3,35.86-12.11-7.16-15.59-25.12-19-37.66-12.11-55.62-3.45-122,5.21-179.39,11.94-75.52,31.45-150.34,55.83-223.56v-294c-27.13,26.6-49.81,57.13-69.67,90.6-6.93,12.58-69.14,143.51-67.42,145.29l6.91-9c-8.63,19.73-13.81,39.47-20.71,57.38-1.78,0,3.42-16.12,1.69-16.12-10.38-1.79-41.5,96.87-43.19,105.84-12.14,37.67-20.77,75.35-22.53,114.81-1.72,43-8.62,86.07-10.35,130.93,0,23.36,0,48.45,3.46,71.78,0,7.17,13.82,44.83,13.82,34.07l8.66,30.49c-1.75-1.78-8.66-19.73-8.66-19.73-8.65,10.76,38,80.73,48.41,91.49,13.84,16.14,34.6,23.3,55.34,26.92,69.14,9,134.84-32.3,185-75.34,86.43-75.34,171.16-168.64,235.12-265.52,25.92-41.24,55.31-78.91,84.7-118.38C3422.11,1308.51,3484.38,1240.35,3458.43,1209.88Zm-466.77,43v7.18c-1.76,1.82-1.76,1.82-1.76,3.6C2989.9,1260.08,2989.9,1256.5,2991.66,1252.9Zm-6.93,28.7-24.22,86.12C2967.42,1339,2976.1,1310.32,2984.73,1281.6ZM2836,1410.79c-6.9,12.53-6.9,35.86-6.9,55.59-1.73-21.51-1.73-44.85,5.17-66.36C2834.3,1400,2839.51,1407.19,2836,1410.79Zm3.48-34.11c-1.72,5.38-5.21,12.55-5.21,16.15,0-9,0-18,8.69-21.52Zm60.52-175.8c-3.46,17.95-8.66,37.68-15.6,53.81-5.14,12.56-20.71,23.34-22.43,32.3,3.43-30.49,25.92-61,39.75-95.07C2901.75,1195.52,2900,1199.1,2900,1200.88Z" transform="translate(-1288.43 -294.54)"/><path class="cls-2" d="M3320.14,1674.47c15.57,9,36.33,12.54,55.35,9,6.9,0,39.77-14.34,27.66-14.34l10.36-3.6-3.45,3.6c1.73,1.78,64-26.91,74.34-30.5,46.11-19.81,86.32-56.3,120.74-92.75-9.29-31.42-4.91-71.22-4.91-71.22l.06,0c-24.06,19.48-48.85,38.53-70.9,56.37-19.07,16.14-74.38,73.55-103.8,62.8-83-26.9,88.21-371.34,83-373.16s-60.52,139.93-72.6,172.23c27.64-87.89,64-174,102-256.52-1.73,7.17-6.93,21.53-3.48,21.53,5.17,1.77,31.09-57.39,25.94-59.21-1.75,0-3.45,1.82-5.2,1.82,5.2-7.18,13.8-10.78,17.28-21.56,5.18-23.31-20.74-48.42-39.75-55.6-41.5-17.91-89.91,7.18-108.92,48.43-5.21,7.17-10.38,19.74-13.83,23.34-5.18,10.74-13.86,14.36-20.77,25.13-19,34.08-29.36,73.51-43.22,109.41-5.18,16.14-65.68,195.53-57,197.31l3.42-3.59c-3.42,12.55-5.18,26.9-6.91,39.46-3.42-1.78,1.73-12.56-1.69-12.56-17.31-1.78-24.22,113-22.49,125.59C3264.86,1611.67,3287.3,1656.53,3320.14,1674.47Z" transform="translate(-1288.43 -294.54)"/><path class="cls-2" d="M4193.27,1249.32c-29.42,25.1-60.52,46.66-89.94,71.75-84.7,66.38-164.22,136.33-243.76,206.31,32.85-96.9,81.25-193.75,133.14-281.64,10.36-18,19-34.1,15.54-55.6-8.64-48.45-70.9-68.19-112.4-61-36.28,7.17-39.73,25.13-46.66,50.22-13.83,44.86-64,84.32-93.36,118.41-4.44,5.23-18.08,22.19-33.67,41.6v84.83l6-6.25c26-26.89,48.44-68.16,76.05-89.7-15.53,50.24-31.09,100.47-44.9,150.7-19,59.17-29.39,132.72-57.09,186.54-22.47,43.06-79.53,82.51-112.37,116.63-46.66,44.82-93.34,89.68-136.56,136.32-60.52,66.39-114.13,141.7-167.72,215.25-55.3,77.14-131.4,186.56-62.21,279.81,46.63,66.4,133.11,107.66,210.89,86.18,70.89-18,98.56-79,133.14-136.37,110.64-190.17,171.15-410.81,235.12-620.66,10.36-30.52,17.29-84.32,34.57-109.44s51.86-46.63,72.63-66.35c51.86-48.47,105.47-95.08,159.05-139.95l150.42-123.76c22.46-18,53.59-34.07,50.11-68.17C4264.08,1177.56,4210.5,1233.18,4193.27,1249.32ZM3525.91,2166v1.86l-6.91,14.31v1.75a1.76,1.76,0,0,0-1.78,1.81c0,1.8-1.69,5.42-1.69,5.42a1132.15,1132.15,0,0,1-60.52,122c-19,32.33-45,84.32-81.25,96.92-69.17,25.1-74.35-93.3-64-132.81,25.92-96.81,95.09-181.18,153.85-258.27,60.54-80.73,124.46-154.28,197.07-224.26C3619.25,1918.44,3577.74,2044,3525.91,2166Zm110.62-78.9c-1.73,3.59-3.46,7.18-6.91,10.74Zm-17.28,84.32L3603.68,2200c6.9-19.67,13.84-41.26,22.5-59.2,6.89-21.53,19-44.84,31.11-66.32C3646.91,2106.79,3638.29,2139.06,3619.25,2171.38Zm65.68-226-31.11,78.93c3.47-16.17,6.89-34.08,13.83-44.88,6.93-16.13,20.76-44.81,17.28-64.55C3686.66,1923.82,3688.41,1936.34,3684.93,1945.35Z" transform="translate(-1288.43 -294.54)"/><path class="cls-2" d="M2655.48,560a10.25,10.25,0,0,1-6.06-2.38,9.52,9.52,0,0,1-2.64-6.33q0-7.11,8.7-8.7,6.6,0,8.7,8.7Q2664.18,560,2655.48,560ZM2650,688.38V579.49h10.81V688.38Z" transform="translate(-1288.43 -294.54)"/><path class="cls-2" d="M2739.33,688.38V493.27h10.54V688.38Z" transform="translate(-1288.43 -294.54)"/><path class="cls-2" d="M2825.81,688.38V493.27h10.54V688.38Z" transform="translate(-1288.43 -294.54)"/><path class="cls-2" d="M2982.68,678.89q-10.8,11.6-30.32,11.6-19.24,0-29.79-11.34T2912,647.51v-68h10.81v68q0,15.57,6.86,24,7.11,8.44,22.67,8.44,30.33,0,30.32-32.43v-68h10.55v68Q2993.23,667.55,2982.68,678.89Z" transform="translate(-1288.43 -294.54)"/><path class="cls-2" d="M3132.71,681.52q-10.56,9-25.32,9-25.3,0-38-22.94l9.22-5.54a37,37,0,0,0,10.81,12.66q6.6,5,17.93,5,24.78,0,24.79-21.09,0-9.24-8.7-16.09a57.7,57.7,0,0,0-7.52-3.56q-4.87-2-12-4.61-13.2-4.76-19-9.49-8.45-6.86-8.44-19.78a25.09,25.09,0,0,1,8.44-19q8.17-8.18,21.36-8.18a42,42,0,0,1,30.85,12.66l-7.91,6.86q-9-9-22.94-9-19,0-19,16.61a15,15,0,0,0,5.81,12.13q4.74,3.69,15,7.12a156.28,156.28,0,0,1,14.77,5.93,58.61,58.61,0,0,1,8.7,4.88q11.34,8.7,11.34,23.47Q3143,672.83,3132.71,681.52Z" transform="translate(-1288.43 -294.54)"/><path class="cls-2" d="M3235.53,590.3v98.08h-10.81V590.3H3210V579.49h14.76V531.76h10.81v47.73h25.31V590.3Z" transform="translate(-1288.43 -294.54)"/><path class="cls-2" d="M3389.25,595.57a37.65,37.65,0,0,0-9-5,27.38,27.38,0,0,0-10-1.85,14.45,14.45,0,0,0-8.43,2.77,28.29,28.29,0,0,0-6.86,6.86,35.34,35.34,0,0,0-4.61,9.09,28.58,28.58,0,0,0-1.72,9.23v71.72h-10.81V579.49h10.81v14.76a44.32,44.32,0,0,1,9-11.07,17.71,17.71,0,0,1,12.13-5,41.65,41.65,0,0,1,13.44,1.84,48.64,48.64,0,0,1,11.87,6.6Z" transform="translate(-1288.43 -294.54)"/><path class="cls-2" d="M3558.52,688.38V669.66q-17.14,20.57-43.5,20.57-23.73,0-39.82-16.09-16.35-16.35-16.34-40.08t16.08-39.81q16.35-16.35,40.08-16.35,26.1,0,43.5,20.57v-19h10.81V688.38Zm-11.34-86.48a45.51,45.51,0,1,0,13.45,32.16A43.85,43.85,0,0,0,3547.18,601.9Z" transform="translate(-1288.43 -294.54)"/><path class="cls-2" d="M3670.58,590.3v98.08h-10.81V590.3H3645V579.49h14.77V531.76h10.81v47.73h25.31V590.3Z" transform="translate(-1288.43 -294.54)"/><path class="cls-2" d="M3848.29,673.88q-16.35,16.35-40.08,16.35t-39.81-16.09q-16.35-16.35-16.35-40.08,0-23.46,16.35-39.81,16.08-16.61,39.81-16.61,23.46,0,39.81,16.35t16.35,40.07Q3864.37,657.79,3848.29,673.88Zm-7.65-72.25q-13.18-13.44-32.43-13.44-18.45,0-31.9,13.71-13.71,13.71-13.71,32.16a45.62,45.62,0,1,0,91.23,0Q3853.83,614.83,3840.64,601.63Z" transform="translate(-1288.43 -294.54)"/><path class="cls-2" d="M3995.67,595.57a37.59,37.59,0,0,0-9-5,27.46,27.46,0,0,0-10-1.85,14.5,14.5,0,0,0-8.44,2.77,28.43,28.43,0,0,0-6.85,6.86,35.36,35.36,0,0,0-4.62,9.09,28.82,28.82,0,0,0-1.71,9.23v71.72h-10.81V579.49h10.81v14.76a44.28,44.28,0,0,1,9-11.07,17.72,17.72,0,0,1,12.13-5,41.67,41.67,0,0,1,13.45,1.84,48.6,48.6,0,0,1,11.86,6.6Z" transform="translate(-1288.43 -294.54)"/><path class="cls-2" d="M1881.88,2039.88v-19.51q-17.4,21.36-44.29,21.35-23.73,0-39.82-16.08-16.35-16.35-16.34-40.08t16.08-39.81q16.35-16.34,40.08-16.35,26.1,0,44.29,21.36v-106h10.81v195.11Zm-12.13-86.48a45.51,45.51,0,1,0,13.45,32.16A43.85,43.85,0,0,0,1869.75,1953.4Z" transform="translate(-1288.43 -294.54)"/><path class="cls-2" d="M1979.7,1983.19q0,22.15,11.87,35.07,12.39,13.18,34,13.18a52.22,52.22,0,0,0,20-3.69q11.33-4.74,20.3-19.25l9.75,4.49q-10.27,19.52-31.64,26.36a59.91,59.91,0,0,1-18.45,2.64q-24.52,0-40.34-16.09-16.1-16.07-16.09-40.34,0-24.51,15.82-40.34,16.08-16.08,40.61-16.08,24.26,0,40.08,15,16.08,15,16.08,39Zm74.35-34.54a47.36,47.36,0,0,0-28.47-9q-33.75,0-44.3,33.22h88.33Q2067,1957.88,2054.05,1948.65Z" transform="translate(-1288.43 -294.54)"/><path class="cls-2" d="M2213,2033q-10.54,9-25.31,9-25.32,0-38-22.94l9.23-5.54a36.86,36.86,0,0,0,10.81,12.66q6.59,5,17.93,5,24.78,0,24.78-21.09,0-9.22-8.7-16.09a57.46,57.46,0,0,0-7.51-3.56c-3.26-1.32-7.25-2.85-12-4.61q-13.18-4.75-19-9.49-8.45-6.85-8.44-19.78a25.09,25.09,0,0,1,8.44-19q8.16-8.17,21.35-8.18a42,42,0,0,1,30.85,12.66l-7.91,6.86q-9-9-22.94-9-19,0-19,16.61a15,15,0,0,0,5.8,12.13q4.76,3.69,15,7.12a157.38,157.38,0,0,1,14.77,5.93,58.61,58.61,0,0,1,8.7,4.88q11.33,8.7,11.33,23.47Q2223.32,2024.32,2213,2033Z" transform="translate(-1288.43 -294.54)"/><path class="cls-2" d="M2306.9,1911.48a10.25,10.25,0,0,1-6.06-2.38,9.52,9.52,0,0,1-2.64-6.33q0-7.11,8.7-8.7c4.39,0,7.3,2.9,8.7,8.7Q2315.6,1911.49,2306.9,1911.48Zm-5.53,128.4V1931h10.81v108.89Z" transform="translate(-1288.43 -294.54)"/><path class="cls-2" d="M2488.3,2076.27q-14.76,14.76-38.76,14.76-44.55,0-53.26-35.07h10.81q2.91,12.91,16.61,19.25,10.82,5,25.84,5,20.31,0,31.38-11.34,11.32-11.34,11.34-31.64v-16.08q-17.15,20.56-43.51,20.56-23.73,0-39.81-16.08-16.35-16.35-16.35-40.08t16.08-39.81q16.35-16.34,40.08-16.35,26.1,0,43.51,20.57v-19h10.81v106.52Q2503.07,2061.5,2488.3,2076.27Zm-7.38-122.87a45.51,45.51,0,1,0,13.45,32.16A43.89,43.89,0,0,0,2480.92,1953.4Z" transform="translate(-1288.43 -294.54)"/><path class="cls-2" d="M2661.26,2039.88v-65.13q0-34.53-31.11-34.54-15.3,0-23.2,9-8.17,9-8.18,24.52v66.18H2588V1931h10.81v13.18q7.38-14.51,31.38-14.5,20.29,0,31.11,11.6t10.81,32.43v66.18Z" transform="translate(-1288.43 -294.54)"/><path class="cls-2" d="M2761.71,1983.19q0,22.15,11.87,35.07,12.39,13.18,34,13.18a52.19,52.19,0,0,0,20-3.69q11.34-4.74,20.3-19.25l9.76,4.49q-10.29,19.52-31.64,26.36a59.93,59.93,0,0,1-18.46,2.64q-24.51,0-40.34-16.09-16.08-16.07-16.08-40.34,0-24.51,15.82-40.34,16.08-16.08,40.6-16.08,24.26,0,40.08,15,16.08,15,16.08,39Zm74.36-34.54a47.41,47.41,0,0,0-28.48-9q-33.75,0-44.29,33.22h88.32Q2849,1957.88,2836.07,1948.65Z" transform="translate(-1288.43 -294.54)"/><path class="cls-2" d="M2993,1947.07a37.65,37.65,0,0,0-9-5,27.38,27.38,0,0,0-10-1.85,14.45,14.45,0,0,0-8.43,2.77,28.29,28.29,0,0,0-6.86,6.86,35.34,35.34,0,0,0-4.61,9.09,28.58,28.58,0,0,0-1.72,9.23v71.72h-10.81V1931h10.81v14.76a44.32,44.32,0,0,1,9-11.07,17.7,17.7,0,0,1,12.12-5,41.67,41.67,0,0,1,13.45,1.84,48.64,48.64,0,0,1,11.87,6.6Z" transform="translate(-1288.43 -294.54)"/></svg>