<svg id="Layer_1" data-name="Layer 1" xmlns="http://www.w3.org/2000/svg" viewBox="0 0 338.3 338.3"><defs><style>.cls-1{fill:#ffdd65;}.cls-2{fill:#fff;}.cls-3{fill:#80b4af;}</style></defs><circle class="cls-1" cx="169.15" cy="169.15" r="169.15"/><path class="cls-2" d="M144.65,122.09a33.77,33.77,0,0,1,33.77,33.77v70.59a33.77,33.77,0,0,1-33.77,33.78H110.87V122.09ZM116,127.2V255.11h28.66a28.66,28.66,0,0,0,28.67-28.47v-71a28.68,28.68,0,0,0-28.66-28.45Zm11.66,11.66h17a17,17,0,0,1,17,17v70.6a17,17,0,0,1-17,17h-17Zm5.11,99.48h11.9a11.89,11.89,0,0,0,11.89-11.89V155.86A11.9,11.9,0,0,0,144.64,144H132.75Z" transform="translate(-13.58 -18.72)"/><path class="cls-2" d="M220.82,122.09a33.78,33.78,0,0,1,33.78,33.77v12.46a33.66,33.66,0,0,1-8.9,22.84A33.65,33.65,0,0,1,254.6,214v12.46a33.78,33.78,0,0,1-33.78,33.78H187V122.09Zm-28.67,5.11V255.11h28.67a28.66,28.66,0,0,0,28.66-28.66V214a28.6,28.6,0,0,0-7.54-19.37l-3.18-3.46,3.18-3.46a28.6,28.6,0,0,0,7.54-19.38V155.86a28.68,28.68,0,0,0-28.66-28.66Zm11.66,11.66h17a17,17,0,0,1,17,17v12.46a17,17,0,0,1-17,17h-17Zm0,58.13h17a17,17,0,0,1,17,17v12.47a17,17,0,0,1-17,17h-17Zm5.11-16.77h11.9a11.9,11.9,0,0,0,11.89-11.9V155.86A11.9,11.9,0,0,0,220.81,144H208.92Zm0,58.12h11.9a11.89,11.89,0,0,0,11.89-11.89V214a11.9,11.9,0,0,0-11.9-11.89H208.92Z" transform="translate(-13.58 -18.72)"/><path class="cls-3" d="M222.84,95.71c4,1.26,2,11.59,1.26,14.36,1-3.53,5.29-17.89-5-14.11-9.73,3.54-16,16.39-20.25,26.13h.91a92.27,92.27,0,0,1,10.52-17.81C212.5,101.25,218.05,94.45,222.84,95.71Z" transform="translate(-13.58 -18.72)"/><path class="cls-3" d="M227.88,240.1a133.48,133.48,0,0,0-17.39-.5c-17.39,1-34.78,5.29-51.41,10.33,11.89-30.21,18.18-62.21,28-93.25v-3.22l-4.78,14.32c1.47-5,3.11-9.88,4.78-14.84V122.09h11.72c3.41-8,7.42-16.28,13.49-22.35,3-2.77,10.33-8.32,13.61-3.53,3,4.54-.76,14.87-2,19.15a171,171,0,0,1-9.58,24.45c0-.51,3.27-8.57,3-8.57-1-.25-9.83,18.14-9.83,18.39h.26a1.91,1.91,0,0,1-.76.76c-2,3.78,2,5.54,5.29,5.8,5,.5,10.59-2,14.62-5,10.58-8.07,19.65-27,18.9-40.32C245,100,241,92.18,230.4,86.38c-5.8-3.27-13.11-5.79-20.16-5.29-10.08.51-17.89,7.06-23.44,15.12-4.28,6.55-7.06,13.61-9.58,20.67l-3.52,10.58c-1,2.77-3.78,7.31-3.28,10.08,0,.5,1.76-3.28,2-3.53-1.52,4.79-2.78,9.83-4.29,14.87-.25-.25.76-3.78.51-3.78-1.26,0-5.55,16.13-6,17.39-2.52,9.07-5.29,18.39-6.3,28a173.7,173.7,0,0,1-4.54,25.45c-1,4.79-2.52,9.32-3.78,14.11-.75,3.28-4.79,12.35-3.52,15.63a.47.47,0,0,0,.75,0c-.75,2.26-1,4.28-1.76,6.3,0,0,1.26-5.3,1-5.3-1.27.76-1.52,6.81-1.52,6.56-1.51,4-6.3,4-10.08,5.79a24.62,24.62,0,0,0-8.56,5.8c-5.3,5.29-12.1,14.61-9.58,22.93,1.76,6,8.57,7.56,14.11,6.8,2.52-.5,10.33-3,9.83-6.3-.25-.5-4,2-5.29,2.52l-.26.26a.25.25,0,0,1,.26-.26,45.93,45.93,0,0,0,5.29-4.53c-.25.75,4.79-4.79,5.29-5.55,2.77-3.78,6-5.29,10.08-7.3a134.43,134.43,0,0,1,21.17-9.83c15.62-5.55,32.76-6.05,47.63-13.61C226.62,248.17,236.7,241.11,227.88,240.1ZM174.7,130.48a103,103,0,0,1,14.62-28.72c5.29-7.31,11.34-11.85,19.4-13.61-20.16,5-27.21,32.76-35,49.89-2.52,6.05-4.79,12.1-6.81,18.65C169.16,147.87,171.93,139.3,174.7,130.48Z" transform="translate(-13.58 -18.72)"/></svg>