<?xml version="1.0" encoding="utf-8"?>
<!-- Generator: Adobe Illustrator 24.1.2, SVG Export Plug-In . SVG Version: 6.00 Build 0)  -->
<svg version="1.1" id="Layer_1" xmlns="http://www.w3.org/2000/svg" xmlns:xlink="http://www.w3.org/1999/xlink" x="0px" y="0px"
	 viewBox="0 0 5669.29 4104.83" style="enable-background:new 0 0 5669.29 4104.83;" xml:space="preserve">
<style type="text/css">
	.st0{fill:#F0BE26;}
	.st1{fill:#FFFFFF;}
	.st2{fill:#80B4AF;}
	.st3{display:none;}
	.st4{display:inline;fill:#FFFFFF;}
	.st5{display:none;fill:#FFFFFF;}
	.st6{font-family:'GeosansLight';}
	.st7{font-size:263.6633px;}
	.st8{letter-spacing:52;}
</style>
<circle class="st0" cx="2853.32" cy="2052.83" r="1976.67"/>
<g>
	<path class="st1" d="M2656.84,1265.91c0-8.17,6.59-14.76,15.03-14.76c8.17,0,14.76,6.59,14.76,14.76s-6.59,15.03-14.76,15.03
		C2663.43,1280.94,2656.84,1274.09,2656.84,1265.91z M2660.53,1300.45h22.67v120.75h-22.67V1300.45z"/>
	<path class="st1" d="M2747.27,1421.21v-193.52h22.67v193.52H2747.27z"/>
	<path class="st1" d="M2832.17,1421.21v-193.52h22.67v193.52H2832.17z"/>
	<path class="st1" d="M2914.16,1369.53v-69.08h22.67v69.08c0,17.67,14.76,32.17,33.22,32.17c18.19,0,33.22-14.5,33.22-32.17v-69.08
		h22.67v69.08c0,14.76-6.06,28.48-16.61,38.76c-10.55,10.28-24.52,15.56-39.28,15.56c-15.03,0-29-5.27-39.55-15.56
		C2919.96,1398.01,2914.16,1384.3,2914.16,1369.53z"/>
	<path class="st1" d="M3168.07,1385.61c0,6.85-1.85,13.45-5.8,18.98c-3.69,5.54-8.96,9.76-16.08,13.18
		c-6.33,2.9-13.97,4.48-21.62,4.48c-4.22,0-8.17-0.53-12.39-1.32c-13.18-2.64-25.57-8.44-36.12-17.4l14.24-15.56
		c13.97,11.86,25.84,14.24,33.22,14.24c5.01,0,9.75-1.05,13.97-2.9c3.43-1.58,9.49-5.54,9.49-13.71s-7.12-13.18-23.46-16.08
		c-0.79-0.26-20.83-3.95-28.21-8.17c-11.07-6.33-16.87-16.08-16.87-28.21c0-6.59,2.11-12.92,5.8-18.46
		c3.43-4.75,8.17-8.44,15.03-11.6c6.33-2.9,13.18-4.48,20.83-4.48c2.9,0,6.06,0.26,8.96,0.53c11.6,1.85,22.94,6.86,32.43,14.5
		l-13.18,15.29c-11.86-9.23-22.15-10.55-27.16-10.55c-4.75,0-9.23,0.79-12.92,2.64c-5.27,2.64-8.7,7.38-8.7,12.13
		c0,7.91,6.33,12.13,22.41,15.56c0.26,0,21.88,4.75,27.95,8.17c7.12,3.69,9.76,6.59,12.66,10.28
		C3166.22,1372.43,3168.07,1378.76,3168.07,1385.61z"/>
	<path class="st1" d="M3225.81,1381.13v-59.06h-17.93v-21.62h17.93v-46.67h22.67v46.67h37.18v21.62h-37.18v58.53
		c0,9.76,8.44,18.98,17.93,18.98h20.3l5.8,21.62h-26.63C3243.74,1421.21,3225.81,1403.54,3225.81,1381.13z"/>
	<path class="st1" d="M3363.18,1312.85c7.65-8.44,30.06-15.03,44.03-15.03l-5.54,22.67c-21.09,0-38.49,16.08-38.49,36.38v64.33
		h-22.67v-120.75h22.67V1312.85z"/>
	<path class="st1" d="M3545.63,1300.45h22.67v120.75h-22.67v-13.97c-11.34,9.49-25.57,16.61-40.6,16.61
		c-16.87,0-32.69-6.33-44.82-18.19c-11.86-12.13-18.46-27.95-18.46-44.82s6.59-32.69,18.46-44.82
		c12.13-11.86,27.95-18.19,44.82-18.19c15.03,0,29.27,7.12,40.6,16.61V1300.45z M3545.63,1360.83c0-22.41-18.19-40.87-40.6-40.87
		c-22.41,0-40.6,18.46-40.6,40.87s18.19,40.87,40.6,40.87C3527.44,1401.7,3545.63,1383.24,3545.63,1360.83z"/>
	<path class="st1" d="M3635.54,1381.13v-59.06h-17.93v-21.62h17.93v-46.67h22.67v46.67h37.18v21.62h-37.18v58.53
		c0,9.76,8.44,18.98,17.93,18.98h20.3l5.8,21.62h-26.63C3653.47,1421.21,3635.54,1403.54,3635.54,1381.13z"/>
	<path class="st1" d="M3864.13,1360.83c0,16.87-6.59,32.69-18.72,44.82c-11.86,11.86-27.68,18.46-44.56,18.46
		s-32.69-6.59-44.82-18.46c-11.86-12.13-18.46-27.95-18.46-44.82s6.59-32.69,18.46-44.82c12.13-11.86,27.95-18.19,44.82-18.19
		s32.69,6.33,44.56,18.19C3857.54,1328.14,3864.13,1343.96,3864.13,1360.83z M3841.46,1360.83c0-22.41-18.19-40.34-40.6-40.34
		c-22.41,0-40.6,17.93-40.6,40.34s18.19,40.6,40.6,40.6C3823.27,1401.43,3841.46,1383.24,3841.46,1360.83z"/>
	<path class="st1" d="M3937.17,1312.85c7.65-8.44,30.06-15.03,44.03-15.03l-5.54,22.67c-21.09,0-38.49,16.08-38.49,36.38v64.33
		h-22.67v-120.75h22.67V1312.85z"/>
</g>
<g>
	<path class="st1" d="M1892.41,2579.18h22.67v193.52h-22.67v-13.97c-11.34,9.49-25.57,16.61-40.6,16.61
		c-16.87,0-32.69-6.33-44.82-18.19c-11.86-12.13-18.46-27.95-18.46-44.82s6.59-32.69,18.46-44.82
		c12.13-11.86,27.95-18.19,44.82-18.19c15.03,0,29.27,7.12,40.6,16.61V2579.18z M1892.41,2712.33c0-22.41-18.19-40.87-40.6-40.87
		c-22.41,0-40.6,18.46-40.6,40.87s18.19,40.87,40.6,40.87C1874.22,2753.2,1892.41,2734.74,1892.41,2712.33z"/>
	<path class="st1" d="M2081.71,2717.87h-93.07v0.53c2.64,20.04,17.67,35.07,35.07,35.33c10.81-0.53,21.88-5.01,29.53-12.66
		l18.98,11.34c-4.75,5.27-10.02,9.76-16.08,13.45c-9.23,5.54-20.56,8.44-31.9,8.96c-15.82,0-30.32-6.59-40.87-18.46
		c-9.49-10.28-15.29-23.47-16.35-37.97c-0.26-1.85-0.26-3.69-0.26-5.54c0-4.75,0.53-9.49,1.58-14.24
		c2.37-11.07,7.65-21.09,15.03-29.27c10.55-11.6,25.31-18.19,40.87-18.19c15.82,0,30.32,6.59,41.13,18.19
		c7.38,8.17,12.92,18.19,15.03,29.27C2082.24,2709.43,2081.98,2715.5,2081.71,2717.87z M2057.99,2698.89l-0.26-0.53
		c-5.27-15.56-18.72-26.1-33.48-26.1c-14.5,0-27.95,10.55-33.48,26.1l-0.26,0.53H2057.99z"/>
	<path class="st1" d="M2212.49,2737.11c0,6.86-1.85,13.45-5.8,18.98c-3.69,5.54-8.96,9.75-16.08,13.18
		c-6.33,2.9-13.97,4.48-21.62,4.48c-4.22,0-8.17-0.53-12.39-1.32c-13.18-2.64-25.57-8.44-36.12-17.4l14.24-15.56
		c13.97,11.87,25.84,14.24,33.22,14.24c5.01,0,9.76-1.05,13.97-2.9c3.43-1.58,9.49-5.54,9.49-13.71c0-8.17-7.12-13.18-23.47-16.08
		c-0.79-0.26-20.83-3.96-28.21-8.17c-11.07-6.33-16.87-16.08-16.87-28.21c0-6.59,2.11-12.92,5.8-18.46
		c3.43-4.75,8.17-8.44,15.03-11.6c6.33-2.9,13.18-4.48,20.83-4.48c2.9,0,6.06,0.26,8.96,0.53c11.6,1.85,22.94,6.86,32.43,14.5
		l-13.18,15.29c-11.86-9.23-22.15-10.55-27.16-10.55c-4.75,0-9.23,0.79-12.92,2.64c-5.27,2.64-8.7,7.38-8.7,12.13
		c0,7.91,6.33,12.13,22.41,15.56c0.26,0,21.88,4.75,27.95,8.17c7.12,3.69,9.76,6.59,12.66,10.28
		C2210.65,2723.93,2212.49,2730.26,2212.49,2737.11z"/>
	<path class="st1" d="M2264.96,2617.42c0-8.17,6.59-14.77,15.03-14.77c8.17,0,14.76,6.59,14.76,14.77c0,8.17-6.59,15.03-14.76,15.03
		C2271.55,2632.44,2264.96,2625.59,2264.96,2617.42z M2268.65,2651.95h22.67v120.75h-22.67V2651.95z"/>
	<path class="st1" d="M2469.04,2651.95v126.55c0,16.88-6.59,32.96-18.72,44.82c-11.86,11.86-27.68,18.46-44.56,18.46
		c-12.66,0-24.26-3.43-34.01-9.23c-3.96-2.37-7.91-5.54-11.34-8.7l17.14-15.03c7.65,6.06,18.46,10.28,28.21,10.81
		c22.41,0,40.6-18.72,40.6-41.13v-19.77c-11.34,9.49-25.57,16.61-40.6,16.61c-16.87,0-32.69-6.33-44.82-18.19
		c-11.86-12.13-18.46-27.95-18.46-44.82s6.59-32.69,18.46-44.82c12.13-11.86,27.95-18.19,44.82-18.19c15.03,0,29.27,7.12,40.6,16.61
		v-13.97H2469.04z M2446.36,2712.33c0-22.41-18.19-40.87-40.6-40.87c-22.41,0-40.6,18.46-40.6,40.87s18.19,40.87,40.6,40.87
		C2428.17,2753.2,2446.36,2734.74,2446.36,2712.33z"/>
	<path class="st1" d="M2643.05,2707.85v64.86h-22.67v-64.86c0-19.77-15.82-36.12-35.59-36.12c-19.51,0-35.59,16.35-35.59,36.12
		v64.86h-22.67v-120.75h22.67v11.6c10.28-7.91,22.67-13.97,35.59-13.97c15.56,0,30.32,5.8,41.39,16.87
		C2636.99,2677.53,2643.05,2692.03,2643.05,2707.85z"/>
	<path class="st1" d="M2805.73,2717.87h-93.07v0.53c2.64,20.04,17.67,35.07,35.07,35.33c10.81-0.53,21.88-5.01,29.53-12.66
		l18.98,11.34c-4.75,5.27-10.02,9.76-16.08,13.45c-9.23,5.54-20.57,8.44-31.9,8.96c-15.82,0-30.32-6.59-40.87-18.46
		c-9.49-10.28-15.29-23.47-16.35-37.97c-0.26-1.85-0.26-3.69-0.26-5.54c0-4.75,0.53-9.49,1.58-14.24
		c2.37-11.07,7.65-21.09,15.03-29.27c10.55-11.6,25.31-18.19,40.87-18.19c15.82,0,30.32,6.59,41.13,18.19
		c7.38,8.17,12.92,18.19,15.03,29.27C2806.25,2709.43,2805.99,2715.5,2805.73,2717.87z M2782,2698.89l-0.26-0.53
		c-5.27-15.56-18.72-26.1-33.48-26.1c-14.5,0-27.95,10.55-33.48,26.1l-0.26,0.53H2782z"/>
	<path class="st1" d="M2878.24,2664.35c7.65-8.44,30.06-15.03,44.03-15.03l-5.54,22.67c-21.09,0-38.49,16.08-38.49,36.38v64.33
		h-22.67v-120.75h22.67V2664.35z"/>
</g>
<g>
	<g>
		<g>
			<path class="st1" d="M1485.25,1653.58c103.91,0,188.15,84.22,188.15,188.15v393.22c0,103.89-84.24,188.16-188.15,188.16h-188.15
				v-769.53H1485.25z M1325.6,1682.07v712.53h159.66c42.63,0,82.73-16.62,112.87-46.76c29.94-29.93,46.52-69.61,46.79-111.87
				v-395.43c-0.3-42.2-16.88-81.83-46.77-111.73c-30.16-30.15-70.27-46.75-112.89-46.75H1325.6z M1390.52,1746.99h28.49h66.24
				c52.21,0,94.73,42.49,94.73,94.73v393.22c0,52.23-42.52,94.73-94.73,94.73l-66.24,0.01h-28.49V1746.99z M1419.01,2301.17
				l66.24-0.01c36.57,0,66.24-29.64,66.24-66.21v-393.22c0-36.59-29.67-66.24-66.24-66.24h-66.24V2301.17z"/>
			<path class="st1" d="M2097.74,1653.58v121.91h-254.38v201.72h143.66v121.92h-143.66v202.05h254.38v121.93h-376.32v-769.53
				H2097.74z M1749.91,1682.07v712.53h319.31v-64.93h-254.38v-259.06h143.66v-64.91h-143.66v-258.73h254.38v-64.91H1749.91z"/>
			<path class="st1" d="M2524.11,1653.58c103.88,0,188.14,84.22,188.14,188.15v69.42c0,49.04-18.79,93.7-49.52,127.19
				c30.73,33.49,49.52,78.14,49.52,127.19v69.42c0,103.89-84.27,188.16-188.14,188.16h-188.17v-769.53H2524.11z M2364.43,1682.07
				v712.52h159.69c42.63,0,82.7-16.6,112.87-46.76c30.16-30.13,46.76-70.24,46.76-112.88v-69.42c0-40.08-14.93-78.42-41.99-107.92
				l-17.7-19.27l17.7-19.27c27.06-29.53,41.99-67.84,41.99-107.92v-69.42c0-42.64-16.57-82.73-46.76-112.91
				c-30.16-30.15-70.24-46.75-112.87-46.75H2364.43z M2429.32,1746.98l28.52,0.01h66.27c52.21,0,94.7,42.49,94.7,94.73v69.42
				c0,52.24-42.49,94.73-94.7,94.73h-66.27l-28.52,0.01V1746.98z M2429.32,2070.8h28.52h66.27c52.21,0,94.7,42.5,94.7,94.73v69.42
				c0,52.23-42.49,94.73-94.7,94.73l-66.27,0.01h-28.52V2070.8z M2457.84,1977.38l66.27-0.01c36.54,0,66.18-29.65,66.18-66.22
				v-69.42c0-36.59-29.64-66.24-66.18-66.24h-66.27V1977.38z M2457.84,2301.17h66.27c36.54,0,66.18-29.64,66.18-66.23v-69.42
				c0-36.58-29.64-66.23-66.18-66.23h-66.27V2301.17z"/>
			<path class="st1" d="M3136.6,1653.58v581.37c0,103.89-84.27,188.16-188.17,188.16c-103.94,0-188.17-84.27-188.17-188.16v-581.37
				h121.91v581.37c0,36.57,29.66,66.21,66.27,66.21c36.57,0,66.24-29.63,66.24-66.21v-581.37H3136.6z M3043.18,1682.07l-0.02,552.88
				c0,52.23-42.52,94.73-94.73,94.73c-52.24,0-94.76-42.5-94.76-94.73v-552.88h-64.92v553.92c0.27,42.26,16.88,81.94,46.76,111.85
				c30.19,30.15,70.27,46.76,112.92,46.76c42.63,0,82.7-16.62,112.89-46.76c30.14-30.15,46.77-70.25,46.77-112.89v-552.88H3043.18z"
				/>
			<path class="st1" d="M3372.74,1653.58c103.91,0,188.18,84.22,188.18,188.15v69.42c0,49.04-18.8,93.7-49.53,127.19
				c30.73,33.49,49.53,78.14,49.53,127.19v257.58h-121.94l-0.02-257.58c0-36.58-29.64-66.23-66.22-66.23h-66.23v323.8H3184.6
				v-769.53H3372.74z M3213.08,1682.07v712.53h64.9v-323.8h28.52h66.23c52.22,0,94.73,42.5,94.73,94.73v229.07h64.92v-229.07
				c0-40.08-14.9-78.42-42.02-107.92l-17.7-19.27l17.7-19.27c27.13-29.53,42.02-67.84,42.02-107.92v-69.42
				c0-42.64-16.6-82.73-46.76-112.91c-30.16-30.15-70.21-46.75-112.9-46.75H3213.08z M3277.98,1746.98l28.52,0.01h66.23
				c52.22,0,94.73,42.49,94.73,94.73v69.42c0,52.24-42.52,94.73-94.73,94.73h-66.23l-28.52,0.01V1746.98z M3306.5,1977.38
				l66.23-0.01c36.58,0,66.22-29.65,66.22-66.22v-69.42c0-36.59-29.64-66.24-66.22-66.24h-66.23V1977.38z"/>
			<path class="st1" d="M3797.08,1653.58c103.91,0,188.15,84.22,188.15,188.15h-121.94c0-36.59-29.66-66.24-66.21-66.24
				c-36.59,0-66.24,29.65-66.24,66.24v393.22c0,36.59,29.65,66.23,66.24,66.23h66.24V2099.3h-66.24v-121.92h188.15v445.72h-188.15
				c-103.93,0-188.17-84.25-188.17-188.16v-393.22C3608.91,1737.8,3693.15,1653.58,3797.08,1653.58z M3684.16,1728.82
				c-30.16,30.18-46.76,70.27-46.76,112.91v393.22c0,42.64,16.6,82.75,46.76,112.89c29.91,29.87,69.55,46.47,111.74,46.75h160.81
				v-388.71h-131.14v64.92h66.24v258.88h-94.73c-52.21,0-94.73-42.5-94.73-94.73v-393.22c0-52.24,42.52-94.73,94.73-94.73
				c42.33,0,78.21,27.89,90.35,66.23h66.79c-5.7-31.8-20.93-61.08-44.24-84.4c-30.16-30.15-70.27-46.75-112.9-46.75
				C3754.4,1682.07,3714.36,1698.67,3684.16,1728.82z"/>
			<path class="st1" d="M4409.54,1653.58v769.53h-121.91v-323.8h-132.48v323.8h-121.91v-769.53h121.91v323.8h132.48v-323.8H4409.54z
				 M4316.13,1682.07v323.8h-189.48v-323.8h-64.9v712.53h64.9v-323.8h189.48v323.8h64.92v-712.53H4316.13z"/>
		</g>
		<g>
			<path class="st2" d="M2173.82,2229.71c-102.02,53.82-219.57,57.42-326.73,96.89c-50.16,17.92-98.57,43.04-145.25,69.95
				c-27.66,14.34-50.13,25.12-69.14,52.04c-3.48,5.38-38.02,44.82-36.33,39.46c-10.35,10.74-24.19,23.3-36.3,32.26
				c8.66-3.58,34.6-21.52,36.3-17.92c3.48,23.31-50.13,41.26-67.41,44.83c-38.05,5.38-84.73-5.36-96.81-48.43
				c-17.29-59.2,29.39-125.55,65.69-163.23c17.29-17.94,36.3-32.3,58.79-41.26c25.95-12.56,58.77-12.56,69.17-41.26
				c0,1.79,1.7-41.26,10.36-46.64c1.73,0-6.93,37.64-6.93,37.64c5.17-14.34,6.93-28.68,12.1-44.82c-1.72,1.78-3.45,1.78-5.17,0
				c-8.66-23.33,19.01-87.89,24.19-111.23c8.69-34.08,19.04-66.38,25.95-100.46c15.55-60.99,24.21-118.38,31.12-181.16
				c6.91-68.16,25.91-134.54,43.23-199.13c3.45-8.96,32.85-123.77,41.48-123.77c1.76,0-5.18,25.12-3.45,26.92
				c10.41-35.9,19.02-71.76,29.42-105.85c-1.75,1.79-13.86,28.7-13.86,25.13c-3.45-19.75,15.56-52.04,22.46-71.77l24.22-75.35
				c17.26-50.2,36.33-100.45,65.7-147.1c38.02-57.38,91.63-104.03,160.8-107.61c48.38-3.6,98.51,14.36,138.29,37.67
				c72.63,41.24,100.27,96.85,105.47,174c5.2,95.07-57.04,229.62-129.66,287c-27.67,21.53-65.73,39.49-100.3,35.87
				c-22.46-1.77-50.13-14.34-36.3-41.26c0,0,3.48-1.78,5.18-5.36h-1.7c0-1.81,60.49-132.75,67.39-130.96
				c1.76,0-20.73,57.42-20.73,60.98c25.95-55.6,48.44-114.81,65.72-174.01c8.63-30.48,34.57-104.03,13.8-136.33
				c-22.46-34.08-72.59,5.38-93.36,25.13c-48.38,50.2-77.77,121.96-103.71,186.57c29.39-69.99,74.32-184.79,150.39-213.48
				c70.9-26.92,41.51,75.35,34.58,100.46c5.2-19.72,19.04-93.29-8.63-102.25c-32.84-8.99-70.87,39.47-86.43,60.99
				c-70.9,95.06-110.67,220.62-146.97,333.64c-74.33,233.22-117.55,475.41-204.01,703.19c114.09-35.86,233.4-66.38,352.67-73.54
				c39.78-1.79,81.28,0,119.34,3.59C2268.9,2166.96,2199.76,2217.15,2173.82,2229.71z M1560.07,2520.32c-1.73,0-1.73,1.82-1.73,1.82
				L1560.07,2520.32z M1790.02,1566.01c13.84-46.65,29.39-89.69,46.65-132.77c53.64-121.99,102.02-319.3,240.3-355.16
				c-55.28,12.55-96.81,44.82-133.08,96.85c-44.98,62.77-76.1,130.96-100.29,204.5C1824.59,1442.24,1805.57,1503.21,1790.02,1566.01
				z M1935.24,1517.56c-13.84,43.06-27.67,84.3-39.78,127.37l39.78-123.79V1517.56v1.8V1517.56z"/>
			<g>
				<path class="st2" d="M2335.94,2229.85c-30.11-0.16-4.09-67.18,2.16-91.59c5.2-14.34,67.45-181.19,70.89-179.41
					c-3.45,0-6.93,1.8-10.35,7.18c19.01-43.04,39.75-86.1,62.21-127.37c-5.18,10.77-10.35,28.72-10.35,28.72
					c8.63,1.78,50.1-86.1,46.68-86.1c-3.48,1.77-6.93,5.38-10.38,10.72c13.8-25.08,31.12-37.64,0-62.76
					c-31.13-25.13-86.46-30.49-117.58-1.79c-38.02,32.3-62.24,89.68-81.25,134.55c-12.09,25.12-32.85,39.46-44.96,68.16
					c-24.19,55.6-38.02,111.21-51.85,168.61c-13.81,55.61-22.47,113.03-13.81,170.42c5.16,25.12,13.81,53.82,32.82,71.76
					c5.2,3.57,55.34,23.31,51.88,10.75c-3.45,0-6.93,0-8.66-1.79c19.02,0,38.02-8.96,55.34-19.72c1.72,1.78-13.87,8.96-13.87,10.77
					c5.27,7.11,21.2-0.88,41.07-15.74V2229.85z M2362.32,2053.92c-24.21,69.99-48.38,156.07-44.92,172.22
					C2306.98,2174.1,2343.31,2102.34,2362.32,2053.92z"/>
				<path class="st2" d="M2903.47,2023.45c-50.13,55.6-98.57,116.59-157.36,165.03c-27.64,21.52-39.77,34.08-38.02-8.97
					c1.73-37.67,15.56-77.16,25.92-111.24c5.2-17.92,39.77-86.09,29.42-98.63c-1.76-1.79-5.21,3.58-8.66,7.16
					c24.21-50.24,82.98-136.33,5.2-159.67c-88.19-25.12-133.14,73.57-171.16,132.77c-36.33,53.82-70.9,105.84-112.4,154.27
					c-5.62,6.83-11.86,14.81-18.58,23.34v79.65c42.52-56.37,85.01-111.09,129.23-165.79c-22.47,62.8-60.49,148.89-24.2,217.08
					c20.74,35.87,60.49,55.61,98.54,52.01c81.26-5.38,153.88-96.85,204.04-152.46c32.82-37.68,65.66-77.14,89.88-120.19
					c10.35-17.94,38.02-57.42,36.3-78.94C2986.45,1924.77,2906.93,2019.85,2903.47,2023.45z M2772.09,1881.74
					c-13.87,39.46-31.15,75.33-43.23,113.02c-3.48,10.74-5.2,25.09-10.38,34.08c0,1.79-1.73,3.58-3.48,5.37
					c1.75-1.79,1.75-3.57,1.75-5.37C2702.89,1983.97,2754.78,1926.55,2772.09,1881.74z M2587.07,2050.35
					c0-7.18,1.75-12.56,6.93-16.15C2590.52,2039.58,2588.82,2044.97,2587.07,2050.35z"/>
			</g>
			<g>
				<path class="st2" d="M3159.36,1693.37c3.48-1.79-10.35-7.18-12.11-5.38c-3.89,2.21-7.34,5.1-10.66,8.11v7.11
					c3.45-3.96,6.91-7.89,10.66-11.63C3150.74,1687.99,3157.64,1695.15,3159.36,1693.37z"/>
				<path class="st2" d="M3136.6,1653.58v36.56c52.33-35.13,31.23,115.13,24.49,137.78c0-1.79,6.96-41.26,5.18-41.26
					c-3.42,0-27.64,91.46-27.64,91.46l8.63-7.16c-3.17,5.31-7.56,10.15-10.66,14.93v19.61c1.7,2.14,3.95,4.36,7.2,6.71
					c27.67,19.74,81.28-14.36,93.37-39.48c12.11-26.9,15.55-62.78,17.31-89.69c3.45-46.64-8.66-73.54-24.22-109.41
					c-17.29-37.68-32.88-60.99-79.52-68.16c-38.02-5.38-72.63,10.74-101.99,34.08c-5.89,4.38-11.07,9.31-16.55,14.03H3136.6z"/>
				<path class="st2" d="M3467.11,1942.73c-34.57-35.92-124.45,113-138.31,130.92c-27.64,37.7-57.04,73.57-84.7,109.43
					c-15.56,19.74-31.13,39.48-48.44,57.42c-3.45,3.56-36.3,46.64-32.81,46.64c5.2-1.78,10.32-5.38,15.53-8.99
					c-29.37,32.3-69.12,60.99-105.41,89.72c-24.22,17.93-70.93,57.39-100.3,35.86c-12.11-7.16-15.59-25.12-19.04-37.67
					c-12.11-55.61-3.45-122,5.21-179.38c11.94-75.53,31.45-150.34,55.83-223.57v-293.97c-27.13,26.6-49.8,57.13-69.66,90.61
					c-6.93,12.57-69.15,143.51-67.42,145.29l6.91-8.96c-8.63,19.72-13.8,39.46-20.71,57.38c-1.78,0,3.42-16.12,1.7-16.12
					c-10.38-1.79-41.5,96.87-43.2,105.84c-12.14,37.67-20.77,75.35-22.52,114.81c-1.73,43.04-8.63,86.07-10.35,130.93
					c0,23.35,0,48.45,3.45,71.77c0,7.18,13.83,44.83,13.83,34.08l8.66,30.49c-1.75-1.78-8.66-19.74-8.66-19.74
					c-8.66,10.77,38.02,80.73,48.41,91.5c13.84,16.14,34.6,23.3,55.34,26.92c69.14,8.96,134.84-32.3,184.99-75.34
					c86.43-75.35,171.16-168.64,235.13-265.52c25.92-41.24,55.31-78.91,84.7-118.39
					C3430.79,2041.36,3493.06,1973.21,3467.11,1942.73z M3000.34,1985.75v7.18c-1.76,1.82-1.76,1.82-1.76,3.6
					C2998.58,1992.93,2998.58,1989.36,3000.34,1985.75z M2993.41,2014.45l-24.22,86.13
					C2976.1,2071.88,2984.78,2043.17,2993.41,2014.45z M2844.71,2143.64c-6.9,12.53-6.9,35.86-6.9,55.6
					c-1.73-21.52-1.73-44.86,5.17-66.36C2842.98,2132.88,2848.19,2140.04,2844.71,2143.64z M2848.19,2109.54
					c-1.73,5.38-5.21,12.55-5.21,16.15c0-8.96,0-17.96,8.69-21.52L2848.19,2109.54z M2908.71,1933.73
					c-3.45,17.96-8.66,37.68-15.59,53.82c-5.15,12.56-20.71,23.34-22.43,32.3c3.42-30.49,25.91-60.99,39.75-95.07
					C2910.43,1928.38,2908.71,1931.95,2908.71,1933.73z"/>
			</g>
			<g>
				<path class="st2" d="M3328.82,2407.33c15.56,8.96,36.33,12.53,55.34,8.96c6.9,0,39.77-14.34,27.66-14.34l10.36-3.6l-3.45,3.6
					c1.73,1.78,63.97-26.92,74.34-30.5c46.11-19.81,86.32-56.29,120.73-92.74c-9.29-31.42-4.91-71.23-4.91-71.23l0.05-0.03
					c-24.05,19.48-48.84,38.53-70.9,56.37c-19.06,16.15-74.38,73.55-103.8,62.8c-82.98-26.9,88.21-371.33,83.01-373.15
					c-5.18-1.77-60.52,139.93-72.6,172.23c27.65-87.89,64-174,102.02-256.52c-1.73,7.18-6.93,21.53-3.48,21.53
					c5.18,1.77,31.09-57.39,25.95-59.21c-1.75,0-3.45,1.82-5.2,1.82c5.2-7.18,13.8-10.78,17.28-21.56
					c5.18-23.31-20.73-48.42-39.75-55.6c-41.5-17.92-89.91,7.18-108.91,48.43c-5.21,7.16-10.38,19.74-13.84,23.34
					c-5.18,10.74-13.86,14.36-20.77,25.12c-19.02,34.08-29.37,73.51-43.23,109.41c-5.18,16.14-65.67,195.53-57.01,197.31l3.42-3.59
					c-3.42,12.55-5.18,26.9-6.91,39.46c-3.42-1.78,1.73-12.56-1.7-12.56c-17.31-1.78-24.22,113.02-22.49,125.59
					C3273.54,2344.53,3295.98,2389.38,3328.82,2407.33z"/>
				<path class="st2" d="M4201.95,1982.18c-29.42,25.09-60.52,46.65-89.94,71.75c-84.7,66.38-164.23,136.33-243.76,206.31
					c32.84-96.89,81.25-193.75,133.14-281.64c10.35-17.94,19.01-34.09,15.53-55.6c-8.63-48.45-70.9-68.19-112.4-60.99
					c-36.27,7.16-39.73,25.12-46.66,50.21c-13.84,44.86-63.99,84.32-93.36,118.41c-4.44,5.23-18.08,22.19-33.67,41.6v84.83l6-6.25
					c25.95-26.89,48.44-68.16,76.05-89.7c-15.53,50.24-31.09,100.47-44.9,150.7c-19.04,59.17-29.39,132.73-57.09,186.54
					c-22.47,43.06-79.53,82.51-112.38,116.63c-46.66,44.82-93.34,89.68-136.56,136.32c-60.52,66.39-114.13,141.7-167.71,215.25
					c-55.3,77.14-131.41,186.56-62.21,279.81c46.63,66.4,133.11,107.66,210.88,86.18c70.9-17.97,98.56-79.01,133.14-136.37
					c110.64-190.17,171.16-410.81,235.13-620.67c10.36-30.52,17.29-84.32,34.57-109.44c17.29-25.11,51.86-46.63,72.63-66.35
					c51.86-48.46,105.47-95.07,159.05-139.95l150.42-123.76c22.46-17.96,53.59-34.08,50.1-68.17
					C4272.76,1910.42,4219.18,1966.03,4201.95,1982.18z M3534.59,2898.81v1.86l-6.91,14.3v1.75c-1.78,0-1.78,1.81-1.78,1.81
					c0,1.81-1.7,5.42-1.7,5.42c-17.29,41.26-38.02,82.51-60.52,121.96c-19.02,32.33-44.95,84.32-81.25,96.92
					c-69.17,25.09-74.35-93.3-63.97-132.81c25.91-96.81,95.09-181.19,153.85-258.28c60.54-80.73,124.45-154.27,197.07-224.25
					C3627.93,2651.29,3586.42,2776.85,3534.59,2898.81z M3645.21,2819.92c-1.73,3.59-3.45,7.18-6.91,10.74L3645.21,2819.92z
					 M3627.93,2904.24l-15.56,28.66c6.9-19.67,13.84-41.26,22.49-59.2c6.9-21.53,19.01-44.84,31.12-66.32
					C3655.59,2839.64,3646.96,2871.91,3627.93,2904.24z M3693.61,2678.21l-31.12,78.92c3.48-16.16,6.9-34.08,13.84-44.87
					c6.93-16.13,20.76-44.82,17.28-64.55C3695.34,2656.67,3697.09,2669.19,3693.61,2678.21z"/>
			</g>
		</g>
	</g>
	<g class="st3">
		<path class="st4" d="M2664.16,1292.83c-1.94,0-3.96-0.79-6.06-2.37c-1.58-1.58-2.46-3.69-2.64-6.33c0-4.75,2.9-7.65,8.7-8.7
			c4.39,0,7.29,2.9,8.7,8.7C2672.86,1289.93,2669.96,1292.83,2664.16,1292.83z M2658.63,1421.23v-108.89h10.81v108.89H2658.63z"/>
		<path class="st4" d="M2748.01,1421.23v-195.11h10.55v195.11H2748.01z"/>
		<path class="st4" d="M2834.49,1421.23v-195.11h10.55v195.11H2834.49z"/>
		<path class="st4" d="M2991.36,1411.74c-7.21,7.74-17.32,11.6-30.32,11.6c-12.83,0-22.77-3.78-29.79-11.34
			c-7.03-7.56-10.55-18.1-10.55-31.64v-68.03h10.81v68.03c0,10.37,2.28,18.37,6.86,23.99c4.75,5.63,12.3,8.44,22.67,8.44
			c20.21,0,30.32-10.81,30.32-32.43v-68.03h10.55v68.03C3001.91,1393.73,2998.39,1404.19,2991.36,1411.74z"/>
		<path class="st4" d="M3141.38,1414.38c-7.03,5.98-15.47,8.96-25.31,8.96c-16.87,0-29.53-7.65-37.97-22.94l9.23-5.54
			c2.99,5.45,6.59,9.67,10.81,12.66c4.39,3.34,10.37,5.01,17.93,5.01c16.52,0,24.79-7.03,24.79-21.09c0-6.15-2.9-11.51-8.7-16.08
			c-1.76-1.05-4.26-2.24-7.51-3.56c-3.25-1.32-7.25-2.85-12-4.61c-8.79-3.16-15.12-6.33-18.98-9.49
			c-5.63-4.57-8.44-11.16-8.44-19.77c0-7.38,2.81-13.71,8.44-18.98c5.45-5.45,12.57-8.17,21.36-8.17c12.13,0,22.41,4.22,30.85,12.66
			l-7.91,6.85c-5.98-5.97-13.62-8.96-22.94-8.96c-12.66,0-18.98,5.54-18.98,16.61c0,4.92,1.93,8.96,5.8,12.13
			c3.16,2.46,8.17,4.84,15.03,7.12c5.97,2.11,10.9,4.09,14.77,5.93c3.86,1.85,6.76,3.47,8.7,4.88c7.56,5.8,11.34,13.62,11.34,23.47
			C3151.67,1400.93,3148.24,1408.58,3141.38,1414.38z"/>
		<path class="st4" d="M3244.21,1323.15v98.08h-10.81v-98.08h-14.76v-10.81h14.76v-47.72h10.81v47.72h25.31v10.81H3244.21z"/>
		<path class="st4" d="M3397.93,1328.42c-2.81-2.11-5.8-3.78-8.96-5.01c-3.16-1.23-6.5-1.85-10.02-1.85c-2.99,0-5.8,0.92-8.44,2.77
			c-2.64,1.85-4.92,4.13-6.86,6.86c-1.94,2.73-3.47,5.76-4.61,9.1c-1.15,3.34-1.71,6.42-1.71,9.23v71.72h-10.81v-108.89h10.81v14.77
			c2.28-4.04,5.27-7.73,8.96-11.07c3.69-3.34,7.73-5.01,12.13-5.01c5.45,0,9.93,0.62,13.45,1.85c3.51,1.23,7.47,3.43,11.87,6.59
			L3397.93,1328.42z"/>
		<path class="st4" d="M3567.2,1421.23v-18.72c-11.43,13.71-25.93,20.57-43.5,20.57c-15.82,0-29.09-5.36-39.81-16.08
			c-10.9-10.9-16.35-24.26-16.35-40.08s5.36-29.09,16.08-39.81c10.9-10.9,24.26-16.35,40.08-16.35c17.4,0,31.9,6.86,43.5,20.57
			v-18.98h10.81v108.89H3567.2z M3555.86,1334.75c-8.96-8.96-19.69-13.45-32.17-13.45c-12.66,0-23.38,4.4-32.17,13.18
			c-8.96,8.96-13.45,19.77-13.45,32.43c0,12.48,4.48,23.2,13.45,32.17c8.96,8.96,19.68,13.45,32.17,13.45
			c12.66,0,23.38-4.39,32.17-13.18c8.96-8.96,13.45-19.77,13.45-32.43C3569.31,1354.44,3564.83,1343.72,3555.86,1334.75z"/>
		<path class="st4" d="M3679.26,1323.15v98.08h-10.81v-98.08h-14.76v-10.81h14.76v-47.72h10.81v47.72h25.31v10.81H3679.26z"/>
		<path class="st4" d="M3856.97,1406.73c-10.9,10.9-24.26,16.35-40.08,16.35c-15.82,0-29.09-5.36-39.81-16.08
			c-10.9-10.9-16.35-24.26-16.35-40.08c0-15.64,5.45-28.91,16.35-39.81c10.72-11.07,23.99-16.61,39.81-16.61
			c15.64,0,28.91,5.45,39.81,16.35c10.9,10.9,16.35,24.26,16.35,40.08S3867.69,1396.01,3856.97,1406.73z M3849.32,1334.49
			c-8.79-8.96-19.6-13.45-32.43-13.45c-12.31,0-22.94,4.57-31.9,13.71c-9.14,9.14-13.71,19.87-13.71,32.17
			c0,12.48,4.48,23.2,13.45,32.17c8.96,8.96,19.68,13.45,32.17,13.45c12.66,0,23.38-4.39,32.17-13.18
			c8.96-8.96,13.45-19.77,13.45-32.43C3862.5,1354.09,3858.11,1343.28,3849.32,1334.49z"/>
		<path class="st4" d="M4004.35,1328.42c-2.81-2.11-5.8-3.78-8.96-5.01c-3.16-1.23-6.5-1.85-10.02-1.85c-2.99,0-5.8,0.92-8.44,2.77
			c-2.64,1.85-4.92,4.13-6.86,6.86c-1.94,2.73-3.47,5.76-4.61,9.1c-1.15,3.34-1.71,6.42-1.71,9.23v71.72h-10.81v-108.89h10.81v14.77
			c2.28-4.04,5.27-7.73,8.96-11.07c3.69-3.34,7.73-5.01,12.13-5.01c5.45,0,9.93,0.62,13.45,1.85c3.51,1.23,7.47,3.43,11.87,6.59
			L4004.35,1328.42z"/>
	</g>
	<g class="st3">
		<path class="st4" d="M1890.56,2772.73v-19.51c-11.6,14.24-26.37,21.36-44.3,21.36c-15.82,0-29.09-5.36-39.81-16.08
			c-10.9-10.9-16.35-24.26-16.35-40.08c0-15.82,5.36-29.09,16.08-39.81c10.9-10.9,24.26-16.35,40.08-16.35
			c17.4,0,32.17,7.12,44.3,21.36v-105.99h10.81v195.11H1890.56z M1878.43,2686.25c-8.96-8.96-19.69-13.45-32.17-13.45
			c-12.66,0-23.38,4.4-32.17,13.18c-8.96,8.96-13.45,19.77-13.45,32.43c0,12.48,4.48,23.2,13.45,32.17
			c8.96,8.96,19.68,13.45,32.17,13.45c12.66,0,23.38-4.39,32.17-13.18c8.96-8.96,13.45-19.78,13.45-32.43
			C1891.88,2705.94,1887.4,2695.22,1878.43,2686.25z"/>
		<path class="st4" d="M1988.38,2716.04c0,14.77,3.95,26.46,11.86,35.07c8.26,8.79,19.6,13.18,34.01,13.18
			c7.38,0,14.06-1.23,20.04-3.69c7.56-3.16,14.32-9.58,20.3-19.25l9.76,4.48c-6.85,13.01-17.4,21.8-31.64,26.37
			c-5.45,1.76-11.6,2.64-18.46,2.64c-16.35,0-29.79-5.36-40.34-16.08c-10.72-10.72-16.08-24.17-16.08-40.34
			c0-16.35,5.27-29.79,15.82-40.34c10.72-10.72,24.26-16.08,40.6-16.08c16.17,0,29.53,5.01,40.08,15.03
			c10.72,10.02,16.08,23.03,16.08,39.02H1988.38z M2062.73,2681.51c-8.26-5.97-17.76-8.96-28.48-8.96
			c-22.5,0-37.27,11.07-44.3,33.22h88.33C2076.53,2695.74,2071.34,2687.66,2062.73,2681.51z"/>
		<path class="st4" d="M2221.72,2765.88c-7.03,5.98-15.47,8.96-25.31,8.96c-16.87,0-29.53-7.65-37.97-22.94l9.23-5.54
			c2.99,5.45,6.59,9.67,10.81,12.65c4.39,3.34,10.37,5.01,17.93,5.01c16.52,0,24.78-7.03,24.78-21.09c0-6.15-2.9-11.51-8.7-16.08
			c-1.76-1.05-4.26-2.24-7.51-3.56c-3.25-1.32-7.25-2.85-12-4.61c-8.79-3.16-15.12-6.33-18.98-9.49
			c-5.63-4.57-8.44-11.16-8.44-19.77c0-7.38,2.81-13.71,8.44-18.98c5.45-5.45,12.57-8.17,21.36-8.17c12.13,0,22.41,4.22,30.85,12.66
			l-7.91,6.86c-5.98-5.97-13.62-8.96-22.94-8.96c-12.66,0-18.98,5.54-18.98,16.61c0,4.92,1.93,8.96,5.8,12.13
			c3.16,2.46,8.17,4.84,15.03,7.12c5.97,2.11,10.9,4.09,14.77,5.93c3.86,1.85,6.76,3.47,8.7,4.88c7.56,5.8,11.34,13.63,11.34,23.47
			C2232,2752.43,2228.58,2760.08,2221.72,2765.88z"/>
		<path class="st4" d="M2315.58,2644.33c-1.94,0-3.96-0.79-6.06-2.37c-1.58-1.58-2.46-3.69-2.64-6.33c0-4.75,2.9-7.65,8.7-8.7
			c4.39,0,7.29,2.9,8.7,8.7C2324.28,2641.43,2321.38,2644.33,2315.58,2644.33z M2310.04,2772.73v-108.89h10.81v108.89H2310.04z"/>
		<path class="st4" d="M2496.98,2809.12c-9.85,9.84-22.77,14.76-38.76,14.76c-29.71,0-47.46-11.69-53.26-35.07h10.81
			c1.93,8.61,7.47,15.03,16.61,19.25c7.21,3.34,15.82,5.01,25.84,5.01c13.53,0,23.99-3.78,31.38-11.34
			c7.56-7.56,11.34-18.11,11.34-31.64v-16.08c-11.43,13.71-25.93,20.56-43.5,20.56c-15.82,0-29.09-5.36-39.81-16.08
			c-10.9-10.9-16.35-24.26-16.35-40.08c0-15.82,5.36-29.09,16.08-39.81c10.9-10.9,24.26-16.35,40.08-16.35
			c17.4,0,31.9,6.86,43.5,20.57v-18.98h10.81v106.52C2511.75,2786.35,2506.82,2799.27,2496.98,2809.12z M2489.6,2686.25
			c-8.96-8.96-19.69-13.45-32.17-13.45c-12.66,0-23.38,4.4-32.17,13.18c-8.96,8.96-13.45,19.77-13.45,32.43
			c0,12.48,4.48,23.2,13.45,32.17c8.96,8.96,19.68,13.45,32.17,13.45c12.66,0,23.38-4.39,32.17-13.18
			c8.96-8.96,13.45-19.78,13.45-32.43C2503.04,2705.94,2498.56,2695.22,2489.6,2686.25z"/>
		<path class="st4" d="M2669.94,2772.73v-65.13c0-23.02-10.37-34.54-31.11-34.54c-10.2,0-17.93,2.99-23.2,8.96
			c-5.45,5.98-8.17,14.15-8.17,24.52v66.18h-10.81v-108.89h10.81v13.18c4.92-9.67,15.38-14.5,31.38-14.5
			c13.53,0,23.9,3.87,31.11,11.6c7.21,7.74,10.81,18.55,10.81,32.43v66.18H2669.94z"/>
		<path class="st4" d="M2770.39,2716.04c0,14.77,3.96,26.46,11.87,35.07c8.26,8.79,19.6,13.18,34.01,13.18
			c7.38,0,14.06-1.23,20.04-3.69c7.56-3.16,14.32-9.58,20.3-19.25l9.76,4.48c-6.86,13.01-17.4,21.8-31.64,26.37
			c-5.45,1.76-11.6,2.64-18.46,2.64c-16.35,0-29.79-5.36-40.34-16.08c-10.72-10.72-16.08-24.17-16.08-40.34
			c0-16.35,5.27-29.79,15.82-40.34c10.72-10.72,24.26-16.08,40.6-16.08c16.17,0,29.53,5.01,40.08,15.03
			c10.72,10.02,16.08,23.03,16.08,39.02H2770.39z M2844.75,2681.51c-8.26-5.97-17.76-8.96-28.48-8.96
			c-22.5,0-37.27,11.07-44.3,33.22h88.33C2858.54,2695.74,2853.36,2687.66,2844.75,2681.51z"/>
		<path class="st4" d="M3001.63,2679.92c-2.81-2.11-5.8-3.78-8.96-5.01c-3.16-1.23-6.5-1.85-10.02-1.85c-2.99,0-5.8,0.92-8.44,2.77
			c-2.64,1.85-4.92,4.13-6.86,6.86c-1.94,2.73-3.47,5.76-4.61,9.1c-1.15,3.34-1.71,6.42-1.71,9.23v71.72h-10.81v-108.89h10.81v14.77
			c2.28-4.04,5.27-7.73,8.96-11.07c3.69-3.34,7.73-5.01,12.13-5.01c5.45,0,9.93,0.62,13.45,1.85c3.51,1.23,7.47,3.43,11.87,6.59
			L3001.63,2679.92z"/>
	</g>
</g>
<text transform="matrix(1 0 0 1 2639.6992 1421.2087)" class="st5 st6 st7 st8">illustrator</text>
<g class="st3">
	<text transform="matrix(1 0 0 1 1780.0898 2772.7087)" class="st4 st6 st7 st8">designer</text>
</g>
</svg>
