<?xml version="1.0" encoding="utf-8"?>
<!-- Generator: Adobe Illustrator 24.1.2, SVG Export Plug-In . SVG Version: 6.00 Build 0)  -->
<svg version="1.1" id="Layer_1" xmlns="http://www.w3.org/2000/svg" xmlns:xlink="http://www.w3.org/1999/xlink" x="0px" y="0px"
	 viewBox="0 0 5669.29 2834.65" style="enable-background:new 0 0 5669.29 2834.65;" xml:space="preserve">
<style type="text/css">
	.st0{fill:#F1BE2A;}
	.st1{fill:#80B4AF;}
</style>
<g>
	<path class="st0" d="M1476.57,920.73c103.91,0,188.15,84.22,188.15,188.15v393.22c0,103.89-84.24,188.16-188.15,188.16h-188.15
		V920.73H1476.57z M1316.92,949.22v712.53h159.66c42.63,0,82.73-16.62,112.87-46.76c29.94-29.93,46.52-69.61,46.79-111.87v-395.43
		c-0.3-42.2-16.88-81.83-46.77-111.73c-30.16-30.15-70.27-46.75-112.89-46.75H1316.92z M1381.84,1014.14h28.49h66.24
		c52.21,0,94.73,42.49,94.73,94.73v393.22c0,52.23-42.52,94.73-94.73,94.73l-66.24,0.01h-28.49V1014.14z M1410.33,1568.32
		l66.24-0.01c36.57,0,66.24-29.64,66.24-66.21v-393.22c0-36.59-29.67-66.24-66.24-66.24h-66.24V1568.32z"/>
	<path class="st0" d="M2089.06,920.73v121.91h-254.38v201.72h143.66v121.92h-143.66v202.05h254.38v121.93h-376.32V920.73H2089.06z
		 M1741.23,949.22v712.53h319.31v-64.93h-254.38v-259.06h143.66v-64.91h-143.66v-258.73h254.38v-64.91H1741.23z"/>
	<path class="st0" d="M2515.43,920.73c103.88,0,188.14,84.22,188.14,188.15v69.42c0,49.04-18.79,93.7-49.52,127.19
		c30.73,33.49,49.52,78.14,49.52,127.19v69.42c0,103.89-84.27,188.16-188.14,188.16h-188.17V920.73H2515.43z M2355.75,949.22v712.52
		h159.69c42.63,0,82.7-16.6,112.87-46.76c30.16-30.13,46.76-70.24,46.76-112.88v-69.42c0-40.08-14.93-78.42-41.99-107.92
		l-17.7-19.27l17.7-19.27c27.06-29.53,41.99-67.84,41.99-107.92v-69.42c0-42.64-16.57-82.73-46.76-112.91
		c-30.16-30.15-70.24-46.75-112.87-46.75H2355.75z M2420.64,1014.13l28.52,0.01h66.27c52.21,0,94.7,42.49,94.7,94.73v69.42
		c0,52.24-42.49,94.73-94.7,94.73h-66.27l-28.52,0.01V1014.13z M2420.64,1337.95h28.52h66.27c52.21,0,94.7,42.5,94.7,94.73v69.42
		c0,52.23-42.49,94.73-94.7,94.73l-66.27,0.01h-28.52V1337.95z M2449.16,1244.53l66.27-0.01c36.54,0,66.18-29.65,66.18-66.22v-69.42
		c0-36.59-29.64-66.24-66.18-66.24h-66.27V1244.53z M2449.16,1568.32h66.27c36.54,0,66.18-29.64,66.18-66.23v-69.42
		c0-36.58-29.64-66.23-66.18-66.23h-66.27V1568.32z"/>
	<path class="st0" d="M3127.92,920.73v581.37c0,103.89-84.27,188.16-188.17,188.16c-103.94,0-188.17-84.27-188.17-188.16V920.73
		h121.91v581.37c0,36.57,29.66,66.21,66.27,66.21c36.57,0,66.24-29.63,66.24-66.21V920.73H3127.92z M3034.5,949.22l-0.02,552.88
		c0,52.23-42.52,94.73-94.73,94.73c-52.24,0-94.76-42.5-94.76-94.73V949.22h-64.92v553.92c0.27,42.26,16.88,81.94,46.76,111.85
		c30.19,30.15,70.27,46.76,112.92,46.76c42.63,0,82.7-16.62,112.89-46.76c30.14-30.15,46.77-70.25,46.77-112.89V949.22H3034.5z"/>
	<path class="st0" d="M3364.06,920.73c103.91,0,188.18,84.22,188.18,188.15v69.42c0,49.04-18.8,93.7-49.53,127.19
		c30.73,33.49,49.53,78.14,49.53,127.19v257.58H3430.3l-0.02-257.58c0-36.58-29.64-66.23-66.22-66.23h-66.23v323.8h-121.91V920.73
		H3364.06z M3204.4,949.22v712.53h64.9v-323.8h28.52h66.23c52.22,0,94.73,42.5,94.73,94.73v229.07h64.92v-229.07
		c0-40.08-14.9-78.42-42.02-107.92l-17.7-19.27l17.7-19.27c27.13-29.53,42.02-67.84,42.02-107.92v-69.42
		c0-42.64-16.6-82.73-46.76-112.91c-30.16-30.15-70.21-46.75-112.9-46.75H3204.4z M3269.3,1014.13l28.52,0.01h66.23
		c52.22,0,94.73,42.49,94.73,94.73v69.42c0,52.24-42.52,94.73-94.73,94.73h-66.23l-28.52,0.01V1014.13z M3297.82,1244.53l66.23-0.01
		c36.58,0,66.22-29.65,66.22-66.22v-69.42c0-36.59-29.64-66.24-66.22-66.24h-66.23V1244.53z"/>
	<path class="st0" d="M3788.4,920.73c103.91,0,188.15,84.22,188.15,188.15h-121.94c0-36.59-29.66-66.24-66.21-66.24
		c-36.59,0-66.24,29.65-66.24,66.24v393.22c0,36.59,29.65,66.23,66.24,66.23h66.24v-201.87h-66.24v-121.92h188.15v445.72H3788.4
		c-103.93,0-188.17-84.25-188.17-188.16v-393.22C3600.23,1004.95,3684.47,920.73,3788.4,920.73z M3675.48,995.96
		c-30.16,30.18-46.76,70.27-46.76,112.91v393.22c0,42.64,16.6,82.75,46.76,112.89c29.91,29.87,69.55,46.47,111.74,46.75h160.81
		v-388.71h-131.14v64.92h66.24v258.88h-94.73c-52.21,0-94.73-42.5-94.73-94.73v-393.22c0-52.24,42.52-94.73,94.73-94.73
		c42.33,0,78.21,27.89,90.35,66.23h66.79c-5.7-31.8-20.93-61.08-44.24-84.4c-30.16-30.15-70.27-46.75-112.9-46.75
		C3745.72,949.22,3705.68,965.82,3675.48,995.96z"/>
	<path class="st0" d="M4400.86,920.73v769.53h-121.91v-323.8h-132.48v323.8h-121.91V920.73h121.91v323.8h132.48v-323.8H4400.86z
		 M4307.45,949.22v323.8h-189.48v-323.8h-64.9v712.53h64.9v-323.8h189.48v323.8h64.92V949.22H4307.45z"/>
</g>
<g>
	<path class="st1" d="M2165.14,1496.86c-102.02,53.82-219.57,57.42-326.73,96.89c-50.16,17.92-98.57,43.04-145.25,69.95
		c-27.66,14.34-50.13,25.12-69.14,52.04c-3.48,5.38-38.02,44.82-36.33,39.46c-10.35,10.74-24.19,23.3-36.3,32.26
		c8.66-3.58,34.6-21.52,36.3-17.92c3.48,23.31-50.13,41.26-67.41,44.83c-38.05,5.38-84.73-5.36-96.81-48.43
		c-17.29-59.2,29.39-125.55,65.69-163.23c17.29-17.94,36.3-32.3,58.79-41.26c25.95-12.56,58.77-12.56,69.17-41.26
		c0,1.79,1.7-41.26,10.36-46.64c1.73,0-6.93,37.64-6.93,37.64c5.17-14.34,6.93-28.68,12.1-44.82c-1.72,1.78-3.45,1.78-5.17,0
		c-8.66-23.33,19.01-87.89,24.19-111.23c8.69-34.08,19.04-66.38,25.95-100.46c15.55-60.99,24.21-118.38,31.12-181.16
		c6.91-68.16,25.91-134.54,43.23-199.13c3.45-8.96,32.85-123.77,41.48-123.77c1.76,0-5.18,25.12-3.45,26.92
		c10.41-35.9,19.02-71.76,29.42-105.85c-1.75,1.79-13.86,28.7-13.86,25.13c-3.45-19.75,15.56-52.04,22.46-71.77l24.22-75.35
		c17.26-50.2,36.33-100.45,65.7-147.1c38.02-57.38,91.63-104.03,160.8-107.61c48.38-3.6,98.51,14.36,138.29,37.67
		c72.63,41.24,100.27,96.85,105.47,174c5.2,95.07-57.04,229.62-129.66,287c-27.67,21.53-65.73,39.49-100.3,35.87
		c-22.46-1.77-50.13-14.34-36.3-41.26c0,0,3.48-1.78,5.18-5.36h-1.7c0-1.81,60.49-132.75,67.39-130.96
		c1.76,0-20.73,57.42-20.73,60.98c25.95-55.6,48.44-114.81,65.72-174.01c8.63-30.48,34.57-104.03,13.8-136.33
		c-22.46-34.08-72.59,5.38-93.36,25.13c-48.38,50.2-77.77,121.96-103.71,186.57c29.39-69.99,74.32-184.79,150.39-213.48
		c70.9-26.92,41.51,75.35,34.58,100.46c5.2-19.72,19.04-93.29-8.63-102.25c-32.84-8.99-70.87,39.47-86.43,60.99
		c-70.9,95.06-110.67,220.62-146.97,333.64c-74.33,233.22-117.55,475.41-204.01,703.19c114.09-35.86,233.4-66.38,352.67-73.54
		c39.78-1.79,81.28,0,119.34,3.59C2260.22,1434.1,2191.08,1484.3,2165.14,1496.86z M1551.39,1787.46c-1.73,0-1.73,1.82-1.73,1.82
		L1551.39,1787.46z M1781.34,833.16c13.84-46.65,29.39-89.69,46.65-132.77c53.64-121.99,102.02-319.3,240.3-355.16
		c-55.28,12.55-96.81,44.82-133.08,96.85c-44.98,62.77-76.1,130.96-100.29,204.5C1815.91,709.39,1796.89,770.36,1781.34,833.16z
		 M1926.56,784.71c-13.84,43.06-27.67,84.3-39.78,127.37l39.78-123.79V784.71v1.8V784.71z"/>
	<g>
		<path class="st1" d="M2327.26,1497c-30.11-0.16-4.09-67.18,2.16-91.59c5.2-14.34,67.45-181.19,70.89-179.41
			c-3.45,0-6.93,1.79-10.35,7.18c19.01-43.04,39.75-86.1,62.21-127.37c-5.18,10.77-10.35,28.72-10.35,28.72
			c8.63,1.78,50.1-86.1,46.68-86.1c-3.48,1.77-6.93,5.38-10.38,10.72c13.8-25.08,31.12-37.64,0-62.76
			c-31.13-25.13-86.46-30.49-117.58-1.79c-38.02,32.3-62.24,89.68-81.25,134.55c-12.09,25.12-32.85,39.46-44.96,68.16
			c-24.19,55.6-38.02,111.21-51.85,168.61c-13.81,55.61-22.47,113.03-13.81,170.42c5.16,25.12,13.81,53.82,32.82,71.76
			c5.2,3.57,55.34,23.31,51.88,10.75c-3.45,0-6.93,0-8.66-1.79c19.02,0,38.02-8.96,55.34-19.72c1.72,1.78-13.87,8.96-13.87,10.77
			c5.27,7.11,21.2-0.88,41.07-15.74V1497z M2353.64,1321.07c-24.21,69.99-48.38,156.07-44.92,172.22
			C2298.3,1441.25,2334.63,1369.49,2353.64,1321.07z"/>
		<path class="st1" d="M2894.79,1290.59c-50.13,55.6-98.57,116.59-157.36,165.03c-27.64,21.52-39.77,34.08-38.02-8.97
			c1.73-37.67,15.56-77.16,25.92-111.24c5.2-17.92,39.77-86.09,29.42-98.63c-1.76-1.79-5.21,3.58-8.66,7.16
			c24.21-50.24,82.98-136.33,5.2-159.67c-88.19-25.12-133.14,73.57-171.16,132.77c-36.33,53.82-70.9,105.84-112.4,154.27
			c-5.62,6.83-11.86,14.81-18.58,23.34v79.65c42.52-56.37,85.01-111.09,129.23-165.79c-22.47,62.8-60.49,148.89-24.2,217.08
			c20.74,35.87,60.49,55.61,98.54,52.01c81.26-5.38,153.88-96.85,204.04-152.46c32.82-37.68,65.66-77.14,89.88-120.19
			c10.35-17.94,38.02-57.42,36.3-78.94C2977.77,1191.92,2898.25,1286.99,2894.79,1290.59z M2763.41,1148.88
			c-13.87,39.46-31.15,75.33-43.23,113.02c-3.48,10.74-5.2,25.09-10.38,34.08c0,1.79-1.73,3.58-3.48,5.37
			c1.75-1.79,1.75-3.57,1.75-5.37C2694.21,1251.12,2746.1,1193.7,2763.41,1148.88z M2578.39,1317.5c0-7.18,1.75-12.56,6.93-16.15
			C2581.84,1306.73,2580.14,1312.11,2578.39,1317.5z"/>
	</g>
	<g>
		<path class="st1" d="M3150.68,960.52c3.48-1.79-10.35-7.18-12.11-5.38c-3.89,2.21-7.34,5.1-10.66,8.11v7.11
			c3.45-3.96,6.91-7.89,10.66-11.63C3142.06,955.13,3148.96,962.3,3150.68,960.52z"/>
		<path class="st1" d="M3127.92,920.73v36.56c52.33-35.13,31.23,115.13,24.49,137.78c0-1.79,6.96-41.26,5.18-41.26
			c-3.42,0-27.64,91.46-27.64,91.46l8.63-7.16c-3.17,5.31-7.56,10.15-10.66,14.93v19.61c1.7,2.14,3.95,4.36,7.2,6.71
			c27.67,19.74,81.28-14.36,93.37-39.48c12.11-26.9,15.55-62.78,17.31-89.69c3.45-46.64-8.66-73.54-24.22-109.41
			c-17.29-37.68-32.88-60.99-79.52-68.16c-38.02-5.38-72.63,10.74-101.99,34.08c-5.89,4.38-11.07,9.31-16.55,14.03H3127.92z"/>
		<path class="st1" d="M3458.43,1209.88c-34.57-35.92-124.45,113-138.31,130.92c-27.64,37.7-57.04,73.57-84.7,109.43
			c-15.56,19.74-31.13,39.48-48.44,57.42c-3.45,3.56-36.3,46.64-32.81,46.64c5.2-1.78,10.32-5.38,15.53-8.99
			c-29.37,32.3-69.12,60.99-105.41,89.72c-24.22,17.93-70.93,57.39-100.3,35.86c-12.11-7.16-15.59-25.12-19.04-37.67
			c-12.11-55.61-3.45-122,5.21-179.38c11.94-75.53,31.45-150.34,55.83-223.57V936.29c-27.13,26.6-49.8,57.13-69.66,90.61
			c-6.93,12.57-69.15,143.51-67.42,145.29l6.91-8.96c-8.63,19.72-13.8,39.46-20.71,57.38c-1.78,0,3.42-16.12,1.7-16.12
			c-10.38-1.79-41.5,96.87-43.2,105.84c-12.14,37.67-20.77,75.35-22.52,114.81c-1.73,43.04-8.63,86.07-10.35,130.93
			c0,23.35,0,48.45,3.45,71.77c0,7.18,13.83,44.83,13.83,34.08l8.66,30.49c-1.75-1.78-8.66-19.74-8.66-19.74
			c-8.66,10.77,38.02,80.73,48.41,91.5c13.84,16.14,34.6,23.3,55.34,26.92c69.14,8.96,134.84-32.3,184.99-75.34
			c86.43-75.35,171.16-168.64,235.13-265.52c25.92-41.24,55.31-78.91,84.7-118.39C3422.11,1308.51,3484.38,1240.35,3458.43,1209.88z
			 M2991.66,1252.9v7.18c-1.76,1.82-1.76,1.82-1.76,3.6C2989.9,1260.08,2989.9,1256.5,2991.66,1252.9z M2984.73,1281.6l-24.22,86.13
			C2967.42,1339.03,2976.1,1310.32,2984.73,1281.6z M2836.03,1410.79c-6.9,12.53-6.9,35.86-6.9,55.6
			c-1.73-21.52-1.73-44.86,5.17-66.36C2834.3,1400.02,2839.51,1407.19,2836.03,1410.79z M2839.51,1376.68
			c-1.73,5.38-5.21,12.55-5.21,16.15c0-8.96,0-17.96,8.69-21.52L2839.51,1376.68z M2900.03,1200.88
			c-3.45,17.96-8.66,37.68-15.59,53.82c-5.15,12.56-20.71,23.34-22.43,32.3c3.42-30.49,25.91-60.99,39.75-95.07
			C2901.75,1195.52,2900.03,1199.1,2900.03,1200.88z"/>
	</g>
	<g>
		<path class="st1" d="M3320.14,1674.47c15.56,8.96,36.33,12.53,55.34,8.96c6.9,0,39.77-14.34,27.66-14.34l10.36-3.6l-3.45,3.6
			c1.73,1.78,63.97-26.92,74.34-30.5c46.11-19.81,86.32-56.29,120.73-92.74c-9.29-31.42-4.91-71.23-4.91-71.23l0.05-0.03
			c-24.05,19.48-48.84,38.53-70.9,56.37c-19.06,16.15-74.38,73.55-103.8,62.8c-82.98-26.9,88.21-371.33,83.01-373.15
			c-5.18-1.77-60.52,139.93-72.6,172.23c27.65-87.89,64-174,102.02-256.52c-1.73,7.18-6.93,21.53-3.48,21.53
			c5.18,1.77,31.09-57.39,25.95-59.21c-1.75,0-3.45,1.82-5.2,1.82c5.2-7.18,13.8-10.78,17.28-21.56
			c5.18-23.31-20.73-48.42-39.75-55.6c-41.5-17.92-89.91,7.18-108.91,48.43c-5.21,7.16-10.38,19.74-13.84,23.34
			c-5.18,10.74-13.86,14.36-20.77,25.12c-19.02,34.08-29.37,73.51-43.23,109.41c-5.18,16.14-65.67,195.53-57.01,197.31l3.42-3.59
			c-3.42,12.55-5.18,26.9-6.91,39.46c-3.42-1.78,1.73-12.56-1.7-12.56c-17.31-1.78-24.22,113.02-22.49,125.59
			C3264.86,1611.67,3287.3,1656.53,3320.14,1674.47z"/>
		<path class="st1" d="M4193.27,1249.32c-29.42,25.09-60.52,46.65-89.94,71.75c-84.7,66.38-164.23,136.33-243.76,206.31
			c32.84-96.89,81.25-193.75,133.14-281.64c10.35-17.94,19.01-34.09,15.53-55.6c-8.63-48.45-70.9-68.19-112.4-60.99
			c-36.27,7.16-39.73,25.12-46.66,50.21c-13.84,44.86-63.99,84.32-93.36,118.41c-4.44,5.23-18.08,22.19-33.67,41.6v84.83l6-6.25
			c25.95-26.89,48.44-68.16,76.05-89.7c-15.53,50.24-31.09,100.47-44.9,150.7c-19.04,59.17-29.39,132.73-57.09,186.54
			c-22.47,43.06-79.53,82.51-112.38,116.63c-46.66,44.82-93.34,89.68-136.56,136.32c-60.52,66.39-114.13,141.7-167.71,215.25
			c-55.3,77.14-131.41,186.56-62.21,279.81c46.63,66.4,133.11,107.66,210.88,86.18c70.9-17.97,98.56-79.01,133.14-136.37
			c110.64-190.17,171.16-410.81,235.13-620.67c10.36-30.52,17.29-84.32,34.57-109.44c17.29-25.11,51.86-46.63,72.63-66.35
			c51.86-48.46,105.47-95.07,159.05-139.95l150.42-123.76c22.46-17.96,53.59-34.08,50.1-68.17
			C4264.08,1177.56,4210.5,1233.18,4193.27,1249.32z M3525.91,2165.96v1.86l-6.91,14.3v1.75c-1.78,0-1.78,1.81-1.78,1.81
			c0,1.81-1.7,5.42-1.7,5.42c-17.29,41.26-38.02,82.51-60.52,121.96c-19.02,32.33-44.95,84.32-81.25,96.92
			c-69.17,25.09-74.35-93.3-63.97-132.81c25.91-96.81,95.09-181.19,153.85-258.28c60.54-80.73,124.45-154.27,197.07-224.25
			C3619.25,1918.44,3577.74,2044,3525.91,2165.96z M3636.53,2087.06c-1.73,3.59-3.45,7.18-6.91,10.74L3636.53,2087.06z
			 M3619.25,2171.38l-15.56,28.66c6.9-19.67,13.84-41.26,22.49-59.2c6.9-21.53,19.01-44.84,31.12-66.32
			C3646.91,2106.79,3638.29,2139.06,3619.25,2171.38z M3684.93,1945.35l-31.12,78.92c3.48-16.16,6.9-34.08,13.84-44.87
			c6.93-16.13,20.76-44.82,17.28-64.55C3686.66,1923.82,3688.41,1936.34,3684.93,1945.35z"/>
	</g>
</g>
<g>
	<path class="st1" d="M2655.48,559.98c-1.94,0-3.96-0.79-6.06-2.37c-1.58-1.58-2.46-3.69-2.64-6.33c0-4.75,2.9-7.65,8.7-8.7
		c4.39,0,7.29,2.9,8.7,8.7C2664.18,557.08,2661.28,559.98,2655.48,559.98z M2649.95,688.38V579.49h10.81v108.89H2649.95z"/>
	<path class="st1" d="M2739.33,688.38V493.27h10.55v195.11H2739.33z"/>
	<path class="st1" d="M2825.81,688.38V493.27h10.55v195.11H2825.81z"/>
	<path class="st1" d="M2982.68,678.89c-7.21,7.74-17.32,11.6-30.32,11.6c-12.83,0-22.77-3.78-29.79-11.34
		c-7.03-7.56-10.55-18.1-10.55-31.64v-68.03h10.81v68.03c0,10.37,2.28,18.37,6.86,23.99c4.75,5.63,12.3,8.44,22.67,8.44
		c20.21,0,30.32-10.81,30.32-32.43v-68.03h10.55v68.03C2993.23,660.87,2989.71,671.33,2982.68,678.89z"/>
	<path class="st1" d="M3132.71,681.52c-7.03,5.98-15.47,8.96-25.31,8.96c-16.87,0-29.53-7.65-37.97-22.94l9.23-5.54
		c2.99,5.45,6.59,9.67,10.81,12.66c4.39,3.34,10.37,5.01,17.93,5.01c16.52,0,24.79-7.03,24.79-21.09c0-6.15-2.9-11.51-8.7-16.08
		c-1.76-1.05-4.26-2.24-7.51-3.56c-3.25-1.32-7.25-2.85-12-4.61c-8.79-3.16-15.12-6.33-18.98-9.49c-5.63-4.57-8.44-11.16-8.44-19.77
		c0-7.38,2.81-13.71,8.44-18.98c5.45-5.45,12.57-8.17,21.36-8.17c12.13,0,22.41,4.22,30.85,12.66l-7.91,6.85
		c-5.98-5.97-13.62-8.96-22.94-8.96c-12.66,0-18.98,5.54-18.98,16.61c0,4.92,1.93,8.96,5.8,12.13c3.16,2.46,8.17,4.84,15.03,7.12
		c5.97,2.11,10.9,4.09,14.77,5.93c3.86,1.85,6.76,3.47,8.7,4.88c7.56,5.8,11.34,13.62,11.34,23.47
		C3142.99,668.08,3139.56,675.72,3132.71,681.52z"/>
	<path class="st1" d="M3235.53,590.3v98.08h-10.81V590.3h-14.76v-10.81h14.76v-47.72h10.81v47.72h25.31v10.81H3235.53z"/>
	<path class="st1" d="M3389.25,595.57c-2.81-2.11-5.8-3.78-8.96-5.01c-3.16-1.23-6.5-1.85-10.02-1.85c-2.99,0-5.8,0.92-8.44,2.77
		c-2.64,1.85-4.92,4.13-6.86,6.86c-1.94,2.73-3.47,5.76-4.61,9.1c-1.15,3.34-1.71,6.42-1.71,9.23v71.72h-10.81V579.49h10.81v14.77
		c2.28-4.04,5.27-7.73,8.96-11.07c3.69-3.34,7.73-5.01,12.13-5.01c5.45,0,9.93,0.62,13.45,1.85c3.51,1.23,7.47,3.43,11.87,6.59
		L3389.25,595.57z"/>
	<path class="st1" d="M3558.52,688.38v-18.72c-11.43,13.71-25.93,20.57-43.5,20.57c-15.82,0-29.09-5.36-39.81-16.08
		c-10.9-10.9-16.35-24.26-16.35-40.08s5.36-29.09,16.08-39.81c10.9-10.9,24.26-16.35,40.08-16.35c17.4,0,31.9,6.86,43.5,20.57
		v-18.98h10.81v108.89H3558.52z M3547.18,601.9c-8.96-8.96-19.69-13.45-32.17-13.45c-12.66,0-23.38,4.4-32.17,13.18
		c-8.96,8.96-13.45,19.77-13.45,32.43c0,12.48,4.48,23.2,13.45,32.17c8.96,8.96,19.68,13.45,32.17,13.45
		c12.66,0,23.38-4.39,32.17-13.18c8.96-8.96,13.45-19.77,13.45-32.43C3560.63,621.59,3556.15,610.86,3547.18,601.9z"/>
	<path class="st1" d="M3670.58,590.3v98.08h-10.81V590.3H3645v-10.81h14.76v-47.72h10.81v47.72h25.31v10.81H3670.58z"/>
	<path class="st1" d="M3848.29,673.88c-10.9,10.9-24.26,16.35-40.08,16.35c-15.82,0-29.09-5.36-39.81-16.08
		c-10.9-10.9-16.35-24.26-16.35-40.08c0-15.64,5.45-28.91,16.35-39.81c10.72-11.07,23.99-16.61,39.81-16.61
		c15.64,0,28.91,5.45,39.81,16.35c10.9,10.9,16.35,24.26,16.35,40.08S3859.01,663.16,3848.29,673.88z M3840.64,601.63
		c-8.79-8.96-19.6-13.45-32.43-13.45c-12.31,0-22.94,4.57-31.9,13.71c-9.14,9.14-13.71,19.87-13.71,32.17
		c0,12.48,4.48,23.2,13.45,32.17c8.96,8.96,19.68,13.45,32.17,13.45c12.66,0,23.38-4.39,32.17-13.18
		c8.96-8.96,13.45-19.77,13.45-32.43C3853.83,621.24,3849.43,610.43,3840.64,601.63z"/>
	<path class="st1" d="M3995.67,595.57c-2.81-2.11-5.8-3.78-8.96-5.01c-3.16-1.23-6.5-1.85-10.02-1.85c-2.99,0-5.8,0.92-8.44,2.77
		c-2.64,1.85-4.92,4.13-6.86,6.86c-1.94,2.73-3.47,5.76-4.61,9.1c-1.15,3.34-1.71,6.42-1.71,9.23v71.72h-10.81V579.49h10.81v14.77
		c2.28-4.04,5.27-7.73,8.96-11.07c3.69-3.34,7.73-5.01,12.13-5.01c5.45,0,9.93,0.62,13.45,1.85c3.51,1.23,7.47,3.43,11.87,6.59
		L3995.67,595.57z"/>
</g>
<g>
	<path class="st1" d="M1881.88,2039.88v-19.51c-11.6,14.24-26.37,21.36-44.3,21.36c-15.82,0-29.09-5.36-39.81-16.08
		c-10.9-10.9-16.35-24.26-16.35-40.08c0-15.82,5.36-29.09,16.08-39.81c10.9-10.9,24.26-16.35,40.08-16.35
		c17.4,0,32.17,7.12,44.3,21.36v-105.99h10.81v195.11H1881.88z M1869.75,1953.4c-8.96-8.96-19.69-13.45-32.17-13.45
		c-12.66,0-23.38,4.4-32.17,13.18c-8.96,8.96-13.45,19.77-13.45,32.43c0,12.48,4.48,23.2,13.45,32.17
		c8.96,8.96,19.68,13.45,32.17,13.45c12.66,0,23.38-4.39,32.17-13.18c8.96-8.96,13.45-19.78,13.45-32.43
		C1883.2,1973.09,1878.72,1962.36,1869.75,1953.4z"/>
	<path class="st1" d="M1979.7,1983.19c0,14.77,3.95,26.46,11.86,35.07c8.26,8.79,19.6,13.18,34.01,13.18
		c7.38,0,14.06-1.23,20.04-3.69c7.56-3.16,14.32-9.58,20.3-19.25l9.76,4.48c-6.85,13.01-17.4,21.8-31.64,26.37
		c-5.45,1.76-11.6,2.64-18.46,2.64c-16.35,0-29.79-5.36-40.34-16.08c-10.72-10.72-16.08-24.17-16.08-40.34
		c0-16.35,5.27-29.79,15.82-40.34c10.72-10.72,24.26-16.08,40.6-16.08c16.17,0,29.53,5.01,40.08,15.03
		c10.72,10.02,16.08,23.03,16.08,39.02H1979.7z M2054.05,1948.65c-8.26-5.97-17.76-8.96-28.48-8.96c-22.5,0-37.27,11.07-44.3,33.22
		h88.33C2067.85,1962.89,2062.66,1954.81,2054.05,1948.65z"/>
	<path class="st1" d="M2213.04,2033.02c-7.03,5.98-15.47,8.96-25.31,8.96c-16.87,0-29.53-7.65-37.97-22.94l9.23-5.54
		c2.99,5.45,6.59,9.67,10.81,12.65c4.39,3.34,10.37,5.01,17.93,5.01c16.52,0,24.78-7.03,24.78-21.09c0-6.15-2.9-11.51-8.7-16.08
		c-1.76-1.05-4.26-2.24-7.51-3.56c-3.25-1.32-7.25-2.85-12-4.61c-8.79-3.16-15.12-6.33-18.98-9.49c-5.63-4.57-8.44-11.16-8.44-19.77
		c0-7.38,2.81-13.71,8.44-18.98c5.45-5.45,12.57-8.17,21.36-8.17c12.13,0,22.41,4.22,30.85,12.66l-7.91,6.86
		c-5.98-5.97-13.62-8.96-22.94-8.96c-12.66,0-18.98,5.54-18.98,16.61c0,4.92,1.93,8.96,5.8,12.13c3.16,2.46,8.17,4.84,15.03,7.12
		c5.97,2.11,10.9,4.09,14.77,5.93c3.86,1.85,6.76,3.47,8.7,4.88c7.56,5.8,11.34,13.63,11.34,23.47
		C2223.32,2019.58,2219.9,2027.22,2213.04,2033.02z"/>
	<path class="st1" d="M2306.9,1911.48c-1.94,0-3.96-0.79-6.06-2.37c-1.58-1.58-2.46-3.69-2.64-6.33c0-4.75,2.9-7.65,8.7-8.7
		c4.39,0,7.29,2.9,8.7,8.7C2315.6,1908.58,2312.7,1911.48,2306.9,1911.48z M2301.37,2039.88v-108.89h10.81v108.89H2301.37z"/>
	<path class="st1" d="M2488.3,2076.27c-9.85,9.84-22.77,14.76-38.76,14.76c-29.71,0-47.46-11.69-53.26-35.07h10.81
		c1.93,8.61,7.47,15.03,16.61,19.25c7.21,3.34,15.82,5.01,25.84,5.01c13.53,0,23.99-3.78,31.38-11.34
		c7.56-7.56,11.34-18.11,11.34-31.64v-16.08c-11.43,13.71-25.93,20.56-43.5,20.56c-15.82,0-29.09-5.36-39.81-16.08
		c-10.9-10.9-16.35-24.26-16.35-40.08c0-15.82,5.36-29.09,16.08-39.81c10.9-10.9,24.26-16.35,40.08-16.35
		c17.4,0,31.9,6.86,43.5,20.57v-18.98h10.81v106.52C2503.07,2053.5,2498.14,2066.42,2488.3,2076.27z M2480.92,1953.4
		c-8.96-8.96-19.69-13.45-32.17-13.45c-12.66,0-23.38,4.4-32.17,13.18c-8.96,8.96-13.45,19.77-13.45,32.43
		c0,12.48,4.48,23.2,13.45,32.17c8.96,8.96,19.68,13.45,32.17,13.45c12.66,0,23.38-4.39,32.17-13.18
		c8.96-8.96,13.45-19.78,13.45-32.43C2494.37,1973.09,2489.88,1962.36,2480.92,1953.4z"/>
	<path class="st1" d="M2661.26,2039.88v-65.13c0-23.02-10.37-34.54-31.11-34.54c-10.2,0-17.93,2.99-23.2,8.96
		c-5.45,5.98-8.17,14.15-8.17,24.52v66.18h-10.81v-108.89h10.81v13.18c4.92-9.67,15.38-14.5,31.38-14.5
		c13.53,0,23.9,3.87,31.11,11.6c7.21,7.74,10.81,18.55,10.81,32.43v66.18H2661.26z"/>
	<path class="st1" d="M2761.71,1983.19c0,14.77,3.96,26.46,11.87,35.07c8.26,8.79,19.6,13.18,34.01,13.18
		c7.38,0,14.06-1.23,20.04-3.69c7.56-3.16,14.32-9.58,20.3-19.25l9.76,4.48c-6.86,13.01-17.4,21.8-31.64,26.37
		c-5.45,1.76-11.6,2.64-18.46,2.64c-16.35,0-29.79-5.36-40.34-16.08c-10.72-10.72-16.08-24.17-16.08-40.34
		c0-16.35,5.27-29.79,15.82-40.34c10.72-10.72,24.26-16.08,40.6-16.08c16.17,0,29.53,5.01,40.08,15.03
		c10.72,10.02,16.08,23.03,16.08,39.02H2761.71z M2836.07,1948.65c-8.26-5.97-17.76-8.96-28.48-8.96c-22.5,0-37.27,11.07-44.3,33.22
		h88.33C2849.87,1962.89,2844.68,1954.81,2836.07,1948.65z"/>
	<path class="st1" d="M2992.95,1947.07c-2.81-2.11-5.8-3.78-8.96-5.01c-3.16-1.23-6.5-1.85-10.02-1.85c-2.99,0-5.8,0.92-8.44,2.77
		c-2.64,1.85-4.92,4.13-6.86,6.86c-1.94,2.73-3.47,5.76-4.61,9.1c-1.15,3.34-1.71,6.42-1.71,9.23v71.72h-10.81v-108.89h10.81v14.77
		c2.28-4.04,5.27-7.73,8.96-11.07c3.69-3.34,7.73-5.01,12.13-5.01c5.45,0,9.93,0.62,13.45,1.85c3.51,1.23,7.47,3.43,11.87,6.59
		L2992.95,1947.07z"/>
</g>
</svg>
