<svg id="Layer_1" data-name="Layer 1" xmlns="http://www.w3.org/2000/svg" viewBox="0 0 101.46 101.46"><defs><style>.cls-1{fill:#ffffff;}.cls-2{fill:#89B8B3;}</style></defs><path class="cls-1" d="M114.38,67.48c0,34.84-15.89,49.09-50.73,49.09S12.92,102.32,12.92,67.48,28.81,15.11,63.65,15.11s50.73,17.54,50.73,52.37" transform="translate(-12.92 -15.11)"/><path class="cls-2" d="M63.65,39c8.76,0,9.8,0,13.26.19A18.3,18.3,0,0,1,83,40.27a10.21,10.21,0,0,1,3.77,2.45,10,10,0,0,1,2.45,3.78,17.92,17.92,0,0,1,1.13,6.09c.16,3.46.19,4.49.19,13.26s0,9.79-.19,13.25a17.92,17.92,0,0,1-1.13,6.09A10,10,0,0,1,86.77,89,10.23,10.23,0,0,1,83,91.42a18.3,18.3,0,0,1-6.09,1.13c-3.46.16-4.5.19-13.26.19s-9.8,0-13.26-.19a18.24,18.24,0,0,1-6.09-1.13,10.94,10.94,0,0,1-6.23-6.23A18,18,0,0,1,37,79.1c-.16-3.46-.2-4.5-.2-13.25s0-9.8.2-13.26a18,18,0,0,1,1.12-6.09,10.86,10.86,0,0,1,6.23-6.23,18.24,18.24,0,0,1,6.09-1.13C53.85,39,54.89,39,63.65,39m0-5.91c-8.91,0-10,0-13.53.2a24.14,24.14,0,0,0-8,1.52,16.71,16.71,0,0,0-9.59,9.6,23.8,23.8,0,0,0-1.53,8c-.16,3.5-.2,4.62-.2,13.53s0,10,.2,13.52a23.8,23.8,0,0,0,1.53,8,16.71,16.71,0,0,0,9.59,9.6,24.14,24.14,0,0,0,8,1.52c3.5.16,4.62.2,13.53.2s10,0,13.53-.2a24.14,24.14,0,0,0,8-1.52,16.71,16.71,0,0,0,9.59-9.6,24.06,24.06,0,0,0,1.53-8c.16-3.5.2-4.62.2-13.52s0-10-.2-13.53a24.06,24.06,0,0,0-1.53-8,16.71,16.71,0,0,0-9.59-9.6,24.14,24.14,0,0,0-8-1.52c-3.5-.16-4.62-.2-13.53-.2" transform="translate(-12.92 -15.11)"/><path class="cls-2" d="M63.65,49A16.85,16.85,0,1,0,80.5,65.84,16.85,16.85,0,0,0,63.65,49m0,27.78A10.94,10.94,0,1,1,74.58,65.84,10.94,10.94,0,0,1,63.65,76.78" transform="translate(-12.92 -15.11)"/><path class="cls-2" d="M85.1,48.33a3.94,3.94,0,1,1-3.94-3.93,3.93,3.93,0,0,1,3.94,3.93" transform="translate(-12.92 -15.11)"/></svg>