<svg id="Layer_1" data-name="Layer 1" xmlns="http://www.w3.org/2000/svg" viewBox="0 0 101.46 101.46"><defs><style>.cls-1{fill:#ffffff;}.cls-2{fill:#89B8B3;}</style></defs><path class="cls-1" d="M114.11,69.24c0,34.84-15.89,49.1-50.73,49.1s-50.73-14.26-50.73-49.1S28.54,16.87,63.38,16.87s50.73,17.54,50.73,52.37" transform="translate(-12.65 -16.87)"/><path class="cls-2" d="M36.5,58.29H48V95.35H36.5Zm5.77-18.43a6.68,6.68,0,1,1-6.68,6.68,6.69,6.69,0,0,1,6.68-6.68" transform="translate(-12.65 -16.87)"/><path class="cls-2" d="M55.26,58.29H66.31v5.06h.15a12.12,12.12,0,0,1,10.9-6C89,57.37,91.17,65,91.17,75V95.35H79.66v-18c0-4.3-.08-9.83-6-9.83S66.77,72.18,66.77,77V95.35H55.26Z" transform="translate(-12.65 -16.87)"/></svg>